<?xml version="1.0" encoding="UTF-8" standalone="no"?>
<!DOCTYPE svg PUBLIC "-//W3C//DTD SVG 1.1//EN"
 "http://www.w3.org/Graphics/SVG/1.1/DTD/svg11.dtd">
<!-- Generated by graphviz version 2.38.0 (20140413.2041)
 -->
<!-- Title: ./bazel&#45;bin/demo1_main; 69 samples Pages: 1 -->
<svg width="100%" height="100%"
  xmlns="http://www.w3.org/2000/svg" xmlns:xlink="http://www.w3.org/1999/xlink">
<script type="text/ecmascript"><![CDATA[
// SVGPan
// http://www.cyberz.org/blog/2009/12/08/svgpan-a-javascript-svg-panzoomdrag-library/
// Local modification: if(true || ...) below to force panning, never moving.

/**
 *  SVGPan library 1.2
 * ====================
 *
 * Given an unique existing element with id "viewport", including the
 * the library into any SVG adds the following capabilities:
 *
 *  - Mouse panning
 *  - Mouse zooming (using the wheel)
 *  - Object dargging
 *
 * Known issues:
 *
 *  - Zooming (while panning) on Safari has still some issues
 *
 * Releases:
 *
 * 1.2, Sat Mar 20 08:42:50 GMT 2010, Zeng Xiaohui
 *	Fixed a bug with browser mouse handler interaction
 *
 * 1.1, Wed Feb  3 17:39:33 GMT 2010, Zeng Xiaohui
 *	Updated the zoom code to support the mouse wheel on Safari/Chrome
 *
 * 1.0, Andrea Leofreddi
 *	First release
 *
 * This code is licensed under the following BSD license:
 *
 * Copyright 2009-2010 Andrea Leofreddi <a.leofreddi@itcharm.com>. All rights reserved.
 *
 * Redistribution and use in source and binary forms, with or without modification, are
 * permitted provided that the following conditions are met:
 *
 *    1. Redistributions of source code must retain the above copyright notice, this list of
 *       conditions and the following disclaimer.
 *
 *    2. Redistributions in binary form must reproduce the above copyright notice, this list
 *       of conditions and the following disclaimer in the documentation and/or other materials
 *       provided with the distribution.
 *
 * THIS SOFTWARE IS PROVIDED BY Andrea Leofreddi ``AS IS'' AND ANY EXPRESS OR IMPLIED
 * WARRANTIES, INCLUDING, BUT NOT LIMITED TO, THE IMPLIED WARRANTIES OF MERCHANTABILITY AND
 * FITNESS FOR A PARTICULAR PURPOSE ARE DISCLAIMED. IN NO EVENT SHALL Andrea Leofreddi OR
 * CONTRIBUTORS BE LIABLE FOR ANY DIRECT, INDIRECT, INCIDENTAL, SPECIAL, EXEMPLARY, OR
 * CONSEQUENTIAL DAMAGES (INCLUDING, BUT NOT LIMITED TO, PROCUREMENT OF SUBSTITUTE GOODS OR
 * SERVICES; LOSS OF USE, DATA, OR PROFITS; OR BUSINESS INTERRUPTION) HOWEVER CAUSED AND ON
 * ANY THEORY OF LIABILITY, WHETHER IN CONTRACT, STRICT LIABILITY, OR TORT (INCLUDING
 * NEGLIGENCE OR OTHERWISE) ARISING IN ANY WAY OUT OF THE USE OF THIS SOFTWARE, EVEN IF
 * ADVISED OF THE POSSIBILITY OF SUCH DAMAGE.
 *
 * The views and conclusions contained in the software and documentation are those of the
 * authors and should not be interpreted as representing official policies, either expressed
 * or implied, of Andrea Leofreddi.
 */

var root = document.documentElement;

var state = 'none', stateTarget, stateOrigin, stateTf;

setupHandlers(root);

/**
 * Register handlers
 */
function setupHandlers(root){
	setAttributes(root, {
		"onmouseup" : "add(evt)",
		"onmousedown" : "handleMouseDown(evt)",
		"onmousemove" : "handleMouseMove(evt)",
		"onmouseup" : "handleMouseUp(evt)",
		//"onmouseout" : "handleMouseUp(evt)", // Decomment this to stop the pan functionality when dragging out of the SVG element
	});

	if(navigator.userAgent.toLowerCase().indexOf('webkit') >= 0)
		window.addEventListener('mousewheel', handleMouseWheel, false); // Chrome/Safari
	else
		window.addEventListener('DOMMouseScroll', handleMouseWheel, false); // Others

	var g = svgDoc.getElementById("svg");
	g.width = "100%";
	g.height = "100%";
}

/**
 * Instance an SVGPoint object with given event coordinates.
 */
function getEventPoint(evt) {
	var p = root.createSVGPoint();

	p.x = evt.clientX;
	p.y = evt.clientY;

	return p;
}

/**
 * Sets the current transform matrix of an element.
 */
function setCTM(element, matrix) {
	var s = "matrix(" + matrix.a + "," + matrix.b + "," + matrix.c + "," + matrix.d + "," + matrix.e + "," + matrix.f + ")";

	element.setAttribute("transform", s);
}

/**
 * Dumps a matrix to a string (useful for debug).
 */
function dumpMatrix(matrix) {
	var s = "[ " + matrix.a + ", " + matrix.c + ", " + matrix.e + "\n  " + matrix.b + ", " + matrix.d + ", " + matrix.f + "\n  0, 0, 1 ]";

	return s;
}

/**
 * Sets attributes of an element.
 */
function setAttributes(element, attributes){
	for (i in attributes)
		element.setAttributeNS(null, i, attributes[i]);
}

/**
 * Handle mouse move event.
 */
function handleMouseWheel(evt) {
	if(evt.preventDefault)
		evt.preventDefault();

	evt.returnValue = false;

	var svgDoc = evt.target.ownerDocument;

	var delta;

	if(evt.wheelDelta)
		delta = evt.wheelDelta / 3600; // Chrome/Safari
	else
		delta = evt.detail / -90; // Mozilla

	var z = 1 + delta; // Zoom factor: 0.9/1.1

	var g = svgDoc.getElementById("viewport");

	var p = getEventPoint(evt);

	p = p.matrixTransform(g.getCTM().inverse());

	// Compute new scale matrix in current mouse position
	var k = root.createSVGMatrix().translate(p.x, p.y).scale(z).translate(-p.x, -p.y);

        setCTM(g, g.getCTM().multiply(k));

	stateTf = stateTf.multiply(k.inverse());
}

/**
 * Handle mouse move event.
 */
function handleMouseMove(evt) {
	if(evt.preventDefault)
		evt.preventDefault();

	evt.returnValue = false;

	var svgDoc = evt.target.ownerDocument;

	var g = svgDoc.getElementById("viewport");

	if(state == 'pan') {
		// Pan mode
		var p = getEventPoint(evt).matrixTransform(stateTf);

		setCTM(g, stateTf.inverse().translate(p.x - stateOrigin.x, p.y - stateOrigin.y));
	} else if(state == 'move') {
		// Move mode
		var p = getEventPoint(evt).matrixTransform(g.getCTM().inverse());

		setCTM(stateTarget, root.createSVGMatrix().translate(p.x - stateOrigin.x, p.y - stateOrigin.y).multiply(g.getCTM().inverse()).multiply(stateTarget.getCTM()));

		stateOrigin = p;
	}
}

/**
 * Handle click event.
 */
function handleMouseDown(evt) {
	if(evt.preventDefault)
		evt.preventDefault();

	evt.returnValue = false;

	var svgDoc = evt.target.ownerDocument;

	var g = svgDoc.getElementById("viewport");

	if(true || evt.target.tagName == "svg") {
		// Pan mode
		state = 'pan';

		stateTf = g.getCTM().inverse();

		stateOrigin = getEventPoint(evt).matrixTransform(stateTf);
	} else {
		// Move mode
		state = 'move';

		stateTarget = evt.target;

		stateTf = g.getCTM().inverse();

		stateOrigin = getEventPoint(evt).matrixTransform(stateTf);
	}
}

/**
 * Handle mouse button release event.
 */
function handleMouseUp(evt) {
	if(evt.preventDefault)
		evt.preventDefault();

	evt.returnValue = false;

	var svgDoc = evt.target.ownerDocument;

	if(state == 'pan' || state == 'move') {
		// Quit pan mode
		state = '';
	}
}

]]></script>
<g id="viewport" transform="translate(0,0)">
<g id="viewport" class="graph" transform="scale(1 1) rotate(0) translate(4 1436)">
<title>./bazel&#45;bin/demo1_main; 69 samples</title>
<polygon fill="white" stroke="none" points="-4,4 -4,-1436 830,-1436 830,4 -4,4"/>
<!-- Legend -->
<g id="node1" class="node"><title>Legend</title>
<text text-anchor="start" x="8" y="-1408.8" font-family="Times,serif" font-size="24.00">./bazel&#45;bin/demo1_main</text>
<text text-anchor="start" x="8" y="-1382.8" font-family="Times,serif" font-size="24.00">Total samples: 69</text>
<text text-anchor="start" x="8" y="-1356.8" font-family="Times,serif" font-size="24.00">Focusing on: 69</text>
<text text-anchor="start" x="8" y="-1330.8" font-family="Times,serif" font-size="24.00">Dropped nodes with &lt;= 0 abs(samples)</text>
<text text-anchor="start" x="8" y="-1304.8" font-family="Times,serif" font-size="24.00">Dropped edges with &lt;= 0 samples</text>
</g>
<!-- N1 -->
<g id="node2" class="node"><title>N1</title>
<polygon fill="none" stroke="black" points="479,-1243 405,-1243 405,-1208 479,-1208 479,-1243"/>
<text text-anchor="middle" x="442" y="-1232.6" font-family="Times,serif" font-size="8.00">__libc_start_main</text>
<text text-anchor="end" x="471" y="-1223.6" font-family="Times,serif" font-size="8.00">0 (0.0%)</text>
<text text-anchor="end" x="471" y="-1214.6" font-family="Times,serif" font-size="8.00">of 69 (100.0%)</text>
</g>
<!-- N3 -->
<g id="node4" class="node"><title>N3</title>
<polygon fill="none" stroke="black" points="474.5,-1157 409.5,-1157 409.5,-1122 474.5,-1122 474.5,-1157"/>
<text text-anchor="middle" x="442" y="-1146.6" font-family="Times,serif" font-size="8.00">main</text>
<text text-anchor="end" x="466.5" y="-1137.6" font-family="Times,serif" font-size="8.00">0 (0.0%)</text>
<text text-anchor="end" x="466.5" y="-1128.6" font-family="Times,serif" font-size="8.00">of 69 (100.0%)</text>
</g>
<!-- N1&#45;&gt;N3 -->
<g id="edge1" class="edge"><title>N1&#45;&gt;N3</title>
<path fill="none" stroke="black" stroke-width="2" d="M442,-1207.9C442,-1196.28 442,-1180.51 442,-1167.14"/>
<polygon fill="black" stroke="black" stroke-width="2" points="445.5,-1167.06 442,-1157.06 438.5,-1167.06 445.5,-1167.06"/>
<text text-anchor="middle" x="449" y="-1178.8" font-family="Times,serif" font-size="14.00">69</text>
</g>
<!-- N2 -->
<g id="node3" class="node"><title>N2</title>
<polygon fill="none" stroke="black" points="474.5,-1380.5 409.5,-1380.5 409.5,-1345.5 474.5,-1345.5 474.5,-1380.5"/>
<text text-anchor="middle" x="442" y="-1370.1" font-family="Times,serif" font-size="8.00">_start</text>
<text text-anchor="end" x="466.5" y="-1361.1" font-family="Times,serif" font-size="8.00">0 (0.0%)</text>
<text text-anchor="end" x="466.5" y="-1352.1" font-family="Times,serif" font-size="8.00">of 69 (100.0%)</text>
</g>
<!-- N2&#45;&gt;N1 -->
<g id="edge4" class="edge"><title>N2&#45;&gt;N1</title>
<path fill="none" stroke="black" stroke-width="2" d="M442,-1345.39C442,-1322.43 442,-1280.74 442,-1253.33"/>
<polygon fill="black" stroke="black" stroke-width="2" points="445.5,-1253.25 442,-1243.25 438.5,-1253.25 445.5,-1253.25"/>
<text text-anchor="middle" x="449" y="-1264.8" font-family="Times,serif" font-size="14.00">69</text>
</g>
<!-- N6 -->
<g id="node7" class="node"><title>N6</title>
<polygon fill="none" stroke="black" points="474.5,-1071 409.5,-1071 409.5,-1027 474.5,-1027 474.5,-1071"/>
<text text-anchor="middle" x="442" y="-1060.6" font-family="Times,serif" font-size="8.00">mps</text>
<text text-anchor="middle" x="442" y="-1051.6" font-family="Times,serif" font-size="8.00">Run</text>
<text text-anchor="end" x="466.5" y="-1042.6" font-family="Times,serif" font-size="8.00">0 (0.0%)</text>
<text text-anchor="end" x="466.5" y="-1033.6" font-family="Times,serif" font-size="8.00">of 69 (100.0%)</text>
</g>
<!-- N3&#45;&gt;N6 -->
<g id="edge5" class="edge"><title>N3&#45;&gt;N6</title>
<path fill="none" stroke="black" stroke-width="2" d="M442,-1121.85C442,-1110.44 442,-1094.95 442,-1081.28"/>
<polygon fill="black" stroke="black" stroke-width="2" points="445.5,-1081.27 442,-1071.27 438.5,-1081.27 445.5,-1081.27"/>
<text text-anchor="middle" x="449" y="-1092.8" font-family="Times,serif" font-size="14.00">69</text>
</g>
<!-- N4 -->
<g id="node5" class="node"><title>N4</title>
<polygon fill="none" stroke="black" points="474.5,-976 409.5,-976 409.5,-923 474.5,-923 474.5,-976"/>
<text text-anchor="middle" x="442" y="-965.6" font-family="Times,serif" font-size="8.00">mps</text>
<text text-anchor="middle" x="442" y="-956.6" font-family="Times,serif" font-size="8.00">Demo1</text>
<text text-anchor="middle" x="442" y="-947.6" font-family="Times,serif" font-size="8.00">Run</text>
<text text-anchor="end" x="466.5" y="-938.6" font-family="Times,serif" font-size="8.00">0 (0.0%)</text>
<text text-anchor="end" x="466.5" y="-929.6" font-family="Times,serif" font-size="8.00">of 69 (100.0%)</text>
</g>
<!-- N5 -->
<g id="node6" class="node"><title>N5</title>
<polygon fill="none" stroke="black" points="474.5,-872 409.5,-872 409.5,-828 474.5,-828 474.5,-872"/>
<text text-anchor="middle" x="442" y="-861.6" font-family="Times,serif" font-size="8.00">mps</text>
<text text-anchor="middle" x="442" y="-852.6" font-family="Times,serif" font-size="8.00">Iterate</text>
<text text-anchor="end" x="466.5" y="-843.6" font-family="Times,serif" font-size="8.00">0 (0.0%)</text>
<text text-anchor="end" x="466.5" y="-834.6" font-family="Times,serif" font-size="8.00">of 69 (100.0%)</text>
</g>
<!-- N4&#45;&gt;N5 -->
<g id="edge3" class="edge"><title>N4&#45;&gt;N5</title>
<path fill="none" stroke="black" stroke-width="2" d="M442,-922.883C442,-910.418 442,-895.325 442,-882.194"/>
<polygon fill="black" stroke="black" stroke-width="2" points="445.5,-882.171 442,-872.171 438.5,-882.171 445.5,-882.171"/>
<text text-anchor="middle" x="449" y="-893.8" font-family="Times,serif" font-size="14.00">69</text>
</g>
<!-- N7 -->
<g id="node8" class="node"><title>N7</title>
<polygon fill="none" stroke="black" points="589,-777 295,-777 295,-494 589,-494 589,-777"/>
<text text-anchor="middle" x="442" y="-733.24" font-family="Times,serif" font-size="49.70">mps</text>
<text text-anchor="middle" x="442" y="-678.24" font-family="Times,serif" font-size="49.70">BinInTimeV4</text>
<text text-anchor="middle" x="442" y="-623.24" font-family="Times,serif" font-size="49.70">Run</text>
<text text-anchor="end" x="581" y="-568.24" font-family="Times,serif" font-size="49.70">48 (69.6%)</text>
<text text-anchor="end" x="581" y="-513.24" font-family="Times,serif" font-size="49.70">of 55 (79.7%)</text>
</g>
<!-- N5&#45;&gt;N7 -->
<g id="edge6" class="edge"><title>N5&#45;&gt;N7</title>
<path fill="none" stroke="black" stroke-width="2" d="M442,-827.848C442,-817.169 442,-803.182 442,-787.621"/>
<polygon fill="black" stroke="black" stroke-width="2" points="445.5,-787.187 442,-777.187 438.5,-787.187 445.5,-787.187"/>
<text text-anchor="middle" x="449" y="-798.8" font-family="Times,serif" font-size="14.00">55</text>
</g>
<!-- N8 -->
<g id="node9" class="node"><title>N8</title>
<polygon fill="none" stroke="black" points="735,-694.5 607,-694.5 607,-576.5 735,-576.5 735,-694.5"/>
<text text-anchor="middle" x="671" y="-674.5" font-family="Times,serif" font-size="20.00">mps</text>
<text text-anchor="middle" x="671" y="-652.5" font-family="Times,serif" font-size="20.00">BinInFreqV1</text>
<text text-anchor="middle" x="671" y="-630.5" font-family="Times,serif" font-size="20.00">Run</text>
<text text-anchor="end" x="727" y="-608.5" font-family="Times,serif" font-size="20.00">4 (5.8%)</text>
<text text-anchor="end" x="727" y="-586.5" font-family="Times,serif" font-size="20.00">of 12 (17.4%)</text>
</g>
<!-- N5&#45;&gt;N8 -->
<g id="edge7" class="edge"><title>N5&#45;&gt;N8</title>
<path fill="none" stroke="black" stroke-width="1.04348" d="M474.563,-840.78C508.87,-830.701 562.717,-810.67 598,-777 619.076,-756.887 635.214,-729.346 646.889,-703.975"/>
<polygon fill="black" stroke="black" stroke-width="1.04348" points="650.128,-705.304 650.989,-694.744 643.731,-702.462 650.128,-705.304"/>
<text text-anchor="middle" x="579" y="-798.8" font-family="Times,serif" font-size="14.00">12</text>
</g>
<!-- N16 -->
<g id="node17" class="node"><title>N16</title>
<polygon fill="none" stroke="black" points="807,-662 753,-662 753,-609 807,-609 807,-662"/>
<text text-anchor="middle" x="780" y="-651.6" font-family="Times,serif" font-size="8.00">mps</text>
<text text-anchor="middle" x="780" y="-642.6" font-family="Times,serif" font-size="8.00">Window</text>
<text text-anchor="middle" x="780" y="-633.6" font-family="Times,serif" font-size="8.00">Window</text>
<text text-anchor="end" x="799" y="-624.6" font-family="Times,serif" font-size="8.00">0 (0.0%)</text>
<text text-anchor="end" x="799" y="-615.6" font-family="Times,serif" font-size="8.00">of 2 (2.9%)</text>
</g>
<!-- N5&#45;&gt;N16 -->
<g id="edge15" class="edge"><title>N5&#45;&gt;N16</title>
<path fill="none" stroke="black" d="M474.561,-845.474C544.484,-837.252 705.76,-814.603 744,-777 771.745,-749.717 779.111,-704.177 780.593,-672.363"/>
<polygon fill="black" stroke="black" points="784.097,-672.243 780.89,-662.146 777.1,-672.04 784.097,-672.243"/>
<text text-anchor="middle" x="715.5" y="-798.8" font-family="Times,serif" font-size="14.00">2</text>
</g>
<!-- N6&#45;&gt;N4 -->
<g id="edge2" class="edge"><title>N6&#45;&gt;N4</title>
<path fill="none" stroke="black" stroke-width="2" d="M442,-1026.84C442,-1014.97 442,-999.845 442,-986.193"/>
<polygon fill="black" stroke="black" stroke-width="2" points="445.5,-986.119 442,-976.119 438.5,-986.119 445.5,-986.119"/>
<text text-anchor="middle" x="449" y="-997.8" font-family="Times,serif" font-size="14.00">69</text>
</g>
<!-- N9 -->
<g id="node10" class="node"><title>N9</title>
<polygon fill="none" stroke="black" points="627,-443 481,-443 481,-371 627,-371 627,-443"/>
<text text-anchor="middle" x="554" y="-415.88" font-family="Times,serif" font-size="28.90">sincos</text>
<text text-anchor="end" x="619" y="-383.88" font-family="Times,serif" font-size="28.90">12 (17.4%)</text>
</g>
<!-- N7&#45;&gt;N9 -->
<g id="edge9" class="edge"><title>N7&#45;&gt;N9</title>
<path fill="none" stroke="black" d="M511.498,-493.953C518.893,-478.997 525.955,-464.716 532.123,-452.241"/>
<polygon fill="black" stroke="black" points="535.362,-453.588 536.657,-443.072 529.087,-450.485 535.362,-453.588"/>
<text text-anchor="middle" x="529.5" y="-464.8" font-family="Times,serif" font-size="14.00">5</text>
</g>
<!-- N13 -->
<g id="node14" class="node"><title>N13</title>
<polygon fill="none" stroke="black" points="463,-424.5 409,-424.5 409,-389.5 463,-389.5 463,-424.5"/>
<text text-anchor="middle" x="436" y="-414.1" font-family="Times,serif" font-size="8.00">apply_dit</text>
<text text-anchor="end" x="455" y="-405.1" font-family="Times,serif" font-size="8.00">0 (0.0%)</text>
<text text-anchor="end" x="455" y="-396.1" font-family="Times,serif" font-size="8.00">of 2 (2.9%)</text>
</g>
<!-- N7&#45;&gt;N13 -->
<g id="edge14" class="edge"><title>N7&#45;&gt;N13</title>
<path fill="none" stroke="black" d="M438.277,-493.953C437.681,-471.444 437.125,-450.465 436.712,-434.869"/>
<polygon fill="black" stroke="black" points="440.201,-434.422 436.438,-424.518 433.204,-434.607 440.201,-434.422"/>
<text text-anchor="middle" x="440.5" y="-464.8" font-family="Times,serif" font-size="14.00">2</text>
</g>
<!-- N8&#45;&gt;N9 -->
<g id="edge8" class="edge"><title>N8&#45;&gt;N9</title>
<path fill="none" stroke="black" d="M641.022,-576.465C621.071,-537.842 595.26,-487.876 576.943,-452.416"/>
<polygon fill="black" stroke="black" points="579.921,-450.554 572.222,-443.276 573.702,-453.766 579.921,-450.554"/>
<text text-anchor="middle" x="591.5" y="-464.8" font-family="Times,serif" font-size="14.00">7</text>
</g>
<!-- N20 -->
<g id="node21" class="node"><title>N20</title>
<polygon fill="none" stroke="black" points="707,-433.5 645,-433.5 645,-380.5 707,-380.5 707,-433.5"/>
<text text-anchor="middle" x="676" y="-423.1" font-family="Times,serif" font-size="8.00">mps</text>
<text text-anchor="middle" x="676" y="-414.1" font-family="Times,serif" font-size="8.00">Window</text>
<text text-anchor="middle" x="676" y="-405.1" font-family="Times,serif" font-size="8.00">SampleInFreq</text>
<text text-anchor="end" x="699" y="-396.1" font-family="Times,serif" font-size="8.00">0 (0.0%)</text>
<text text-anchor="end" x="699" y="-387.1" font-family="Times,serif" font-size="8.00">of 1 (1.4%)</text>
</g>
<!-- N8&#45;&gt;N20 -->
<g id="edge18" class="edge"><title>N8&#45;&gt;N20</title>
<path fill="none" stroke="black" d="M672.281,-576.465C673.204,-534.653 674.421,-479.547 675.207,-443.943"/>
<polygon fill="black" stroke="black" points="678.714,-443.631 675.436,-433.556 671.716,-443.476 678.714,-443.631"/>
<text text-anchor="middle" x="677.5" y="-464.8" font-family="Times,serif" font-size="14.00">1</text>
</g>
<!-- N10 -->
<g id="node11" class="node"><title>N10</title>
<polygon fill="none" stroke="black" points="465.5,-220.5 406.5,-220.5 406.5,-185.5 465.5,-185.5 465.5,-220.5"/>
<text text-anchor="middle" x="436" y="-210.1" font-family="Times,serif" font-size="8.00">apply@1b6f0</text>
<text text-anchor="end" x="457.5" y="-201.1" font-family="Times,serif" font-size="8.00">0 (0.0%)</text>
<text text-anchor="end" x="457.5" y="-192.1" font-family="Times,serif" font-size="8.00">of 2 (2.9%)</text>
</g>
<!-- N11 -->
<g id="node12" class="node"><title>N11</title>
<polygon fill="none" stroke="black" points="466,-130 406,-130 406,-95 466,-95 466,-130"/>
<text text-anchor="middle" x="436" y="-119.6" font-family="Times,serif" font-size="8.00">apply@1cad0</text>
<text text-anchor="end" x="458" y="-110.6" font-family="Times,serif" font-size="8.00">0 (0.0%)</text>
<text text-anchor="end" x="458" y="-101.6" font-family="Times,serif" font-size="8.00">of 2 (2.9%)</text>
</g>
<!-- N10&#45;&gt;N11 -->
<g id="edge16" class="edge"><title>N10&#45;&gt;N11</title>
<path fill="none" stroke="black" d="M436,-185.354C436,-172.622 436,-154.813 436,-140.111"/>
<polygon fill="black" stroke="black" points="439.5,-140.071 436,-130.072 432.5,-140.072 439.5,-140.071"/>
<text text-anchor="middle" x="439.5" y="-151.8" font-family="Times,serif" font-size="14.00">2</text>
</g>
<!-- N17 -->
<g id="node18" class="node"><title>N17</title>
<polygon fill="none" stroke="black" points="473,-44 399,-44 399,-0 473,-0 473,-44"/>
<text text-anchor="middle" x="436" y="-26.8" font-family="Times,serif" font-size="16.50">t2_25</text>
<text text-anchor="end" x="465" y="-8.8" font-family="Times,serif" font-size="16.50">2 (2.9%)</text>
</g>
<!-- N11&#45;&gt;N17 -->
<g id="edge12" class="edge"><title>N11&#45;&gt;N17</title>
<path fill="none" stroke="black" d="M436,-94.8538C436,-83.4424 436,-67.9529 436,-54.277"/>
<polygon fill="black" stroke="black" points="439.5,-54.27 436,-44.2701 432.5,-54.2701 439.5,-54.27"/>
<text text-anchor="middle" x="439.5" y="-65.8" font-family="Times,serif" font-size="14.00">2</text>
</g>
<!-- N12 -->
<g id="node13" class="node"><title>N12</title>
<polygon fill="none" stroke="black" points="465.5,-315.5 406.5,-315.5 406.5,-280.5 465.5,-280.5 465.5,-315.5"/>
<text text-anchor="middle" x="436" y="-305.1" font-family="Times,serif" font-size="8.00">apply@20f00</text>
<text text-anchor="end" x="457.5" y="-296.1" font-family="Times,serif" font-size="8.00">0 (0.0%)</text>
<text text-anchor="end" x="457.5" y="-287.1" font-family="Times,serif" font-size="8.00">of 2 (2.9%)</text>
</g>
<!-- N12&#45;&gt;N10 -->
<g id="edge10" class="edge"><title>N12&#45;&gt;N10</title>
<path fill="none" stroke="black" d="M436,-280.373C436,-266.705 436,-247.063 436,-231.122"/>
<polygon fill="black" stroke="black" points="439.5,-230.796 436,-220.796 432.5,-230.796 439.5,-230.796"/>
<text text-anchor="middle" x="439.5" y="-246.8" font-family="Times,serif" font-size="14.00">2</text>
</g>
<!-- N13&#45;&gt;N12 -->
<g id="edge13" class="edge"><title>N13&#45;&gt;N12</title>
<path fill="none" stroke="black" d="M436,-389.281C436,-372.242 436,-345.555 436,-325.608"/>
<polygon fill="black" stroke="black" points="439.5,-325.601 436,-315.601 432.5,-325.601 439.5,-325.601"/>
<text text-anchor="middle" x="439.5" y="-341.8" font-family="Times,serif" font-size="14.00">2</text>
</g>
<!-- N14 -->
<g id="node15" class="node"><title>N14</title>
<polygon fill="none" stroke="black" points="805,-225 731,-225 731,-181 805,-181 805,-225"/>
<text text-anchor="middle" x="768" y="-207.8" font-family="Times,serif" font-size="16.50">gammal</text>
<text text-anchor="end" x="797" y="-189.8" font-family="Times,serif" font-size="16.50">2 (2.9%)</text>
</g>
<!-- N15 -->
<g id="node16" class="node"><title>N15</title>
<polygon fill="none" stroke="black" points="812.5,-433.5 747.5,-433.5 747.5,-380.5 812.5,-380.5 812.5,-433.5"/>
<text text-anchor="middle" x="780" y="-423.1" font-family="Times,serif" font-size="8.00">mps</text>
<text text-anchor="middle" x="780" y="-414.1" font-family="Times,serif" font-size="8.00">Window</text>
<text text-anchor="middle" x="780" y="-405.1" font-family="Times,serif" font-size="8.00">SampleInTime</text>
<text text-anchor="end" x="804.5" y="-396.1" font-family="Times,serif" font-size="8.00">0 (0.0%)</text>
<text text-anchor="end" x="804.5" y="-387.1" font-family="Times,serif" font-size="8.00">of 2 (2.9%)</text>
</g>
<!-- N15&#45;&gt;N14 -->
<g id="edge17" class="edge"><title>N15&#45;&gt;N14</title>
<path fill="none" stroke="black" d="M770.886,-380.419C765.358,-363.515 758.839,-340.733 756,-320 753.347,-300.625 754.387,-295.489 756,-276 757.111,-262.581 759.366,-247.899 761.625,-235.313"/>
<polygon fill="black" stroke="black" points="765.099,-235.781 763.499,-225.307 758.218,-234.493 765.099,-235.781"/>
<text text-anchor="middle" x="759.5" y="-294.3" font-family="Times,serif" font-size="14.00">1</text>
</g>
<!-- N19 -->
<g id="node20" class="node"><title>N19</title>
<polygon fill="none" stroke="black" points="826,-320 772,-320 772,-276 826,-276 826,-320"/>
<text text-anchor="middle" x="799" y="-309.6" font-family="Times,serif" font-size="8.00">mps</text>
<text text-anchor="middle" x="799" y="-300.6" font-family="Times,serif" font-size="8.00">SincPi</text>
<text text-anchor="end" x="818" y="-291.6" font-family="Times,serif" font-size="8.00">0 (0.0%)</text>
<text text-anchor="end" x="818" y="-282.6" font-family="Times,serif" font-size="8.00">of 1 (1.4%)</text>
</g>
<!-- N15&#45;&gt;N19 -->
<g id="edge19" class="edge"><title>N15&#45;&gt;N19</title>
<path fill="none" stroke="black" d="M784.551,-380.371C787.235,-365.257 790.649,-346.027 793.485,-330.055"/>
<polygon fill="black" stroke="black" points="796.95,-330.565 795.252,-320.107 790.058,-329.341 796.95,-330.565"/>
<text text-anchor="middle" x="794.5" y="-341.8" font-family="Times,serif" font-size="14.00">1</text>
</g>
<!-- N16&#45;&gt;N15 -->
<g id="edge11" class="edge"><title>N16&#45;&gt;N15</title>
<path fill="none" stroke="black" d="M780,-608.958C780,-568.6 780,-489.955 780,-443.925"/>
<polygon fill="black" stroke="black" points="783.5,-443.796 780,-433.796 776.5,-443.796 783.5,-443.796"/>
<text text-anchor="middle" x="783.5" y="-464.8" font-family="Times,serif" font-size="14.00">2</text>
</g>
<!-- N18 -->
<g id="node19" class="node"><title>N18</title>
<polygon fill="none" stroke="black" points="708.5,-317 643.5,-317 643.5,-279 708.5,-279 708.5,-317"/>
<text text-anchor="middle" x="676" y="-301.8" font-family="Times,serif" font-size="14.00">erf</text>
<text text-anchor="end" x="700.5" y="-286.8" font-family="Times,serif" font-size="14.00">1 (1.4%)</text>
</g>
<!-- N19&#45;&gt;N14 -->
<g id="edge20" class="edge"><title>N19&#45;&gt;N14</title>
<path fill="none" stroke="black" d="M791.966,-275.897C787.923,-263.768 782.772,-248.315 778.282,-234.845"/>
<polygon fill="black" stroke="black" points="781.489,-233.4 775.007,-225.02 774.848,-235.613 781.489,-233.4"/>
<text text-anchor="middle" x="788.5" y="-246.8" font-family="Times,serif" font-size="14.00">1</text>
</g>
<!-- N20&#45;&gt;N18 -->
<g id="edge21" class="edge"><title>N20&#45;&gt;N18</title>
<path fill="none" stroke="black" d="M676,-380.371C676,-364.344 676,-343.688 676,-327.199"/>
<polygon fill="black" stroke="black" points="679.5,-327.055 676,-317.055 672.5,-327.055 679.5,-327.055"/>
<text text-anchor="middle" x="679.5" y="-341.8" font-family="Times,serif" font-size="14.00">1</text>
</g>
</g>
</g></svg>
