<?xml version="1.0" encoding="UTF-8" standalone="no"?>
<!DOCTYPE svg PUBLIC "-//W3C//DTD SVG 1.1//EN"
 "http://www.w3.org/Graphics/SVG/1.1/DTD/svg11.dtd">
<!-- Generated by graphviz version 2.38.0 (20140413.2041)
 -->
<!-- Title: ./bazel&#45;bin/demo1_main; 96 samples Pages: 1 -->
<svg width="100%" height="100%"
  xmlns="http://www.w3.org/2000/svg" xmlns:xlink="http://www.w3.org/1999/xlink">
<script type="text/ecmascript"><![CDATA[
// SVGPan
// http://www.cyberz.org/blog/2009/12/08/svgpan-a-javascript-svg-panzoomdrag-library/
// Local modification: if(true || ...) below to force panning, never moving.

/**
 *  SVGPan library 1.2
 * ====================
 *
 * Given an unique existing element with id "viewport", including the
 * the library into any SVG adds the following capabilities:
 *
 *  - Mouse panning
 *  - Mouse zooming (using the wheel)
 *  - Object dargging
 *
 * Known issues:
 *
 *  - Zooming (while panning) on Safari has still some issues
 *
 * Releases:
 *
 * 1.2, Sat Mar 20 08:42:50 GMT 2010, Zeng Xiaohui
 *	Fixed a bug with browser mouse handler interaction
 *
 * 1.1, Wed Feb  3 17:39:33 GMT 2010, Zeng Xiaohui
 *	Updated the zoom code to support the mouse wheel on Safari/Chrome
 *
 * 1.0, Andrea Leofreddi
 *	First release
 *
 * This code is licensed under the following BSD license:
 *
 * Copyright 2009-2010 Andrea Leofreddi <a.leofreddi@itcharm.com>. All rights reserved.
 *
 * Redistribution and use in source and binary forms, with or without modification, are
 * permitted provided that the following conditions are met:
 *
 *    1. Redistributions of source code must retain the above copyright notice, this list of
 *       conditions and the following disclaimer.
 *
 *    2. Redistributions in binary form must reproduce the above copyright notice, this list
 *       of conditions and the following disclaimer in the documentation and/or other materials
 *       provided with the distribution.
 *
 * THIS SOFTWARE IS PROVIDED BY Andrea Leofreddi ``AS IS'' AND ANY EXPRESS OR IMPLIED
 * WARRANTIES, INCLUDING, BUT NOT LIMITED TO, THE IMPLIED WARRANTIES OF MERCHANTABILITY AND
 * FITNESS FOR A PARTICULAR PURPOSE ARE DISCLAIMED. IN NO EVENT SHALL Andrea Leofreddi OR
 * CONTRIBUTORS BE LIABLE FOR ANY DIRECT, INDIRECT, INCIDENTAL, SPECIAL, EXEMPLARY, OR
 * CONSEQUENTIAL DAMAGES (INCLUDING, BUT NOT LIMITED TO, PROCUREMENT OF SUBSTITUTE GOODS OR
 * SERVICES; LOSS OF USE, DATA, OR PROFITS; OR BUSINESS INTERRUPTION) HOWEVER CAUSED AND ON
 * ANY THEORY OF LIABILITY, WHETHER IN CONTRACT, STRICT LIABILITY, OR TORT (INCLUDING
 * NEGLIGENCE OR OTHERWISE) ARISING IN ANY WAY OUT OF THE USE OF THIS SOFTWARE, EVEN IF
 * ADVISED OF THE POSSIBILITY OF SUCH DAMAGE.
 *
 * The views and conclusions contained in the software and documentation are those of the
 * authors and should not be interpreted as representing official policies, either expressed
 * or implied, of Andrea Leofreddi.
 */

var root = document.documentElement;

var state = 'none', stateTarget, stateOrigin, stateTf;

setupHandlers(root);

/**
 * Register handlers
 */
function setupHandlers(root){
	setAttributes(root, {
		"onmouseup" : "add(evt)",
		"onmousedown" : "handleMouseDown(evt)",
		"onmousemove" : "handleMouseMove(evt)",
		"onmouseup" : "handleMouseUp(evt)",
		//"onmouseout" : "handleMouseUp(evt)", // Decomment this to stop the pan functionality when dragging out of the SVG element
	});

	if(navigator.userAgent.toLowerCase().indexOf('webkit') >= 0)
		window.addEventListener('mousewheel', handleMouseWheel, false); // Chrome/Safari
	else
		window.addEventListener('DOMMouseScroll', handleMouseWheel, false); // Others

	var g = svgDoc.getElementById("svg");
	g.width = "100%";
	g.height = "100%";
}

/**
 * Instance an SVGPoint object with given event coordinates.
 */
function getEventPoint(evt) {
	var p = root.createSVGPoint();

	p.x = evt.clientX;
	p.y = evt.clientY;

	return p;
}

/**
 * Sets the current transform matrix of an element.
 */
function setCTM(element, matrix) {
	var s = "matrix(" + matrix.a + "," + matrix.b + "," + matrix.c + "," + matrix.d + "," + matrix.e + "," + matrix.f + ")";

	element.setAttribute("transform", s);
}

/**
 * Dumps a matrix to a string (useful for debug).
 */
function dumpMatrix(matrix) {
	var s = "[ " + matrix.a + ", " + matrix.c + ", " + matrix.e + "\n  " + matrix.b + ", " + matrix.d + ", " + matrix.f + "\n  0, 0, 1 ]";

	return s;
}

/**
 * Sets attributes of an element.
 */
function setAttributes(element, attributes){
	for (i in attributes)
		element.setAttributeNS(null, i, attributes[i]);
}

/**
 * Handle mouse move event.
 */
function handleMouseWheel(evt) {
	if(evt.preventDefault)
		evt.preventDefault();

	evt.returnValue = false;

	var svgDoc = evt.target.ownerDocument;

	var delta;

	if(evt.wheelDelta)
		delta = evt.wheelDelta / 3600; // Chrome/Safari
	else
		delta = evt.detail / -90; // Mozilla

	var z = 1 + delta; // Zoom factor: 0.9/1.1

	var g = svgDoc.getElementById("viewport");

	var p = getEventPoint(evt);

	p = p.matrixTransform(g.getCTM().inverse());

	// Compute new scale matrix in current mouse position
	var k = root.createSVGMatrix().translate(p.x, p.y).scale(z).translate(-p.x, -p.y);

        setCTM(g, g.getCTM().multiply(k));

	stateTf = stateTf.multiply(k.inverse());
}

/**
 * Handle mouse move event.
 */
function handleMouseMove(evt) {
	if(evt.preventDefault)
		evt.preventDefault();

	evt.returnValue = false;

	var svgDoc = evt.target.ownerDocument;

	var g = svgDoc.getElementById("viewport");

	if(state == 'pan') {
		// Pan mode
		var p = getEventPoint(evt).matrixTransform(stateTf);

		setCTM(g, stateTf.inverse().translate(p.x - stateOrigin.x, p.y - stateOrigin.y));
	} else if(state == 'move') {
		// Move mode
		var p = getEventPoint(evt).matrixTransform(g.getCTM().inverse());

		setCTM(stateTarget, root.createSVGMatrix().translate(p.x - stateOrigin.x, p.y - stateOrigin.y).multiply(g.getCTM().inverse()).multiply(stateTarget.getCTM()));

		stateOrigin = p;
	}
}

/**
 * Handle click event.
 */
function handleMouseDown(evt) {
	if(evt.preventDefault)
		evt.preventDefault();

	evt.returnValue = false;

	var svgDoc = evt.target.ownerDocument;

	var g = svgDoc.getElementById("viewport");

	if(true || evt.target.tagName == "svg") {
		// Pan mode
		state = 'pan';

		stateTf = g.getCTM().inverse();

		stateOrigin = getEventPoint(evt).matrixTransform(stateTf);
	} else {
		// Move mode
		state = 'move';

		stateTarget = evt.target;

		stateTf = g.getCTM().inverse();

		stateOrigin = getEventPoint(evt).matrixTransform(stateTf);
	}
}

/**
 * Handle mouse button release event.
 */
function handleMouseUp(evt) {
	if(evt.preventDefault)
		evt.preventDefault();

	evt.returnValue = false;

	var svgDoc = evt.target.ownerDocument;

	if(state == 'pan' || state == 'move') {
		// Quit pan mode
		state = '';
	}
}

]]></script>
<g id="viewport" transform="translate(0,0)">
<g id="viewport" class="graph" transform="scale(1 1) rotate(0) translate(4 1512)">
<title>./bazel&#45;bin/demo1_main; 96 samples</title>
<polygon fill="white" stroke="none" points="-4,4 -4,-1512 858.5,-1512 858.5,4 -4,4"/>
<!-- Legend -->
<g id="node1" class="node"><title>Legend</title>
<text text-anchor="start" x="8" y="-1484.8" font-family="Times,serif" font-size="24.00">./bazel&#45;bin/demo1_main</text>
<text text-anchor="start" x="8" y="-1458.8" font-family="Times,serif" font-size="24.00">Total samples: 96</text>
<text text-anchor="start" x="8" y="-1432.8" font-family="Times,serif" font-size="24.00">Focusing on: 96</text>
<text text-anchor="start" x="8" y="-1406.8" font-family="Times,serif" font-size="24.00">Dropped nodes with &lt;= 0 abs(samples)</text>
<text text-anchor="start" x="8" y="-1380.8" font-family="Times,serif" font-size="24.00">Dropped edges with &lt;= 0 samples</text>
</g>
<!-- N1 -->
<g id="node2" class="node"><title>N1</title>
<polygon fill="none" stroke="black" points="479,-1319 405,-1319 405,-1284 479,-1284 479,-1319"/>
<text text-anchor="middle" x="442" y="-1308.6" font-family="Times,serif" font-size="8.00">__libc_start_main</text>
<text text-anchor="end" x="471" y="-1299.6" font-family="Times,serif" font-size="8.00">0 (0.0%)</text>
<text text-anchor="end" x="471" y="-1290.6" font-family="Times,serif" font-size="8.00">of 96 (100.0%)</text>
</g>
<!-- N3 -->
<g id="node4" class="node"><title>N3</title>
<polygon fill="none" stroke="black" points="474.5,-1233 409.5,-1233 409.5,-1198 474.5,-1198 474.5,-1233"/>
<text text-anchor="middle" x="442" y="-1222.6" font-family="Times,serif" font-size="8.00">main</text>
<text text-anchor="end" x="466.5" y="-1213.6" font-family="Times,serif" font-size="8.00">0 (0.0%)</text>
<text text-anchor="end" x="466.5" y="-1204.6" font-family="Times,serif" font-size="8.00">of 96 (100.0%)</text>
</g>
<!-- N1&#45;&gt;N3 -->
<g id="edge4" class="edge"><title>N1&#45;&gt;N3</title>
<path fill="none" stroke="black" stroke-width="2" d="M442,-1283.9C442,-1272.28 442,-1256.51 442,-1243.14"/>
<polygon fill="black" stroke="black" stroke-width="2" points="445.5,-1243.06 442,-1233.06 438.5,-1243.06 445.5,-1243.06"/>
<text text-anchor="middle" x="449" y="-1254.8" font-family="Times,serif" font-size="14.00">96</text>
</g>
<!-- N2 -->
<g id="node3" class="node"><title>N2</title>
<polygon fill="none" stroke="black" points="474.5,-1456.5 409.5,-1456.5 409.5,-1421.5 474.5,-1421.5 474.5,-1456.5"/>
<text text-anchor="middle" x="442" y="-1446.1" font-family="Times,serif" font-size="8.00">_start</text>
<text text-anchor="end" x="466.5" y="-1437.1" font-family="Times,serif" font-size="8.00">0 (0.0%)</text>
<text text-anchor="end" x="466.5" y="-1428.1" font-family="Times,serif" font-size="8.00">of 96 (100.0%)</text>
</g>
<!-- N2&#45;&gt;N1 -->
<g id="edge2" class="edge"><title>N2&#45;&gt;N1</title>
<path fill="none" stroke="black" stroke-width="2" d="M442,-1421.39C442,-1398.43 442,-1356.74 442,-1329.33"/>
<polygon fill="black" stroke="black" stroke-width="2" points="445.5,-1329.25 442,-1319.25 438.5,-1329.25 445.5,-1329.25"/>
<text text-anchor="middle" x="449" y="-1340.8" font-family="Times,serif" font-size="14.00">96</text>
</g>
<!-- N6 -->
<g id="node7" class="node"><title>N6</title>
<polygon fill="none" stroke="black" points="474.5,-1147 409.5,-1147 409.5,-1103 474.5,-1103 474.5,-1147"/>
<text text-anchor="middle" x="442" y="-1136.6" font-family="Times,serif" font-size="8.00">mps</text>
<text text-anchor="middle" x="442" y="-1127.6" font-family="Times,serif" font-size="8.00">Run</text>
<text text-anchor="end" x="466.5" y="-1118.6" font-family="Times,serif" font-size="8.00">0 (0.0%)</text>
<text text-anchor="end" x="466.5" y="-1109.6" font-family="Times,serif" font-size="8.00">of 96 (100.0%)</text>
</g>
<!-- N3&#45;&gt;N6 -->
<g id="edge1" class="edge"><title>N3&#45;&gt;N6</title>
<path fill="none" stroke="black" stroke-width="2" d="M442,-1197.85C442,-1186.44 442,-1170.95 442,-1157.28"/>
<polygon fill="black" stroke="black" stroke-width="2" points="445.5,-1157.27 442,-1147.27 438.5,-1157.27 445.5,-1157.27"/>
<text text-anchor="middle" x="449" y="-1168.8" font-family="Times,serif" font-size="14.00">96</text>
</g>
<!-- N4 -->
<g id="node5" class="node"><title>N4</title>
<polygon fill="none" stroke="black" points="474.5,-1052 409.5,-1052 409.5,-999 474.5,-999 474.5,-1052"/>
<text text-anchor="middle" x="442" y="-1041.6" font-family="Times,serif" font-size="8.00">mps</text>
<text text-anchor="middle" x="442" y="-1032.6" font-family="Times,serif" font-size="8.00">Demo1</text>
<text text-anchor="middle" x="442" y="-1023.6" font-family="Times,serif" font-size="8.00">Run</text>
<text text-anchor="end" x="466.5" y="-1014.6" font-family="Times,serif" font-size="8.00">0 (0.0%)</text>
<text text-anchor="end" x="466.5" y="-1005.6" font-family="Times,serif" font-size="8.00">of 96 (100.0%)</text>
</g>
<!-- N5 -->
<g id="node6" class="node"><title>N5</title>
<polygon fill="none" stroke="black" points="474.5,-948 409.5,-948 409.5,-904 474.5,-904 474.5,-948"/>
<text text-anchor="middle" x="442" y="-937.6" font-family="Times,serif" font-size="8.00">mps</text>
<text text-anchor="middle" x="442" y="-928.6" font-family="Times,serif" font-size="8.00">Iterate</text>
<text text-anchor="end" x="466.5" y="-919.6" font-family="Times,serif" font-size="8.00">0 (0.0%)</text>
<text text-anchor="end" x="466.5" y="-910.6" font-family="Times,serif" font-size="8.00">of 96 (100.0%)</text>
</g>
<!-- N4&#45;&gt;N5 -->
<g id="edge3" class="edge"><title>N4&#45;&gt;N5</title>
<path fill="none" stroke="black" stroke-width="2" d="M442,-998.883C442,-986.418 442,-971.325 442,-958.194"/>
<polygon fill="black" stroke="black" stroke-width="2" points="445.5,-958.171 442,-948.171 438.5,-958.171 445.5,-958.171"/>
<text text-anchor="middle" x="449" y="-969.8" font-family="Times,serif" font-size="14.00">96</text>
</g>
<!-- N7 -->
<g id="node8" class="node"><title>N7</title>
<polygon fill="none" stroke="black" points="593.5,-853 290.5,-853 290.5,-565 593.5,-565 593.5,-853"/>
<text text-anchor="middle" x="442" y="-808.2" font-family="Times,serif" font-size="51.00">mps</text>
<text text-anchor="middle" x="442" y="-752.2" font-family="Times,serif" font-size="51.00">BinInTimeV2</text>
<text text-anchor="middle" x="442" y="-696.2" font-family="Times,serif" font-size="51.00">Run</text>
<text text-anchor="end" x="585.5" y="-640.2" font-family="Times,serif" font-size="51.00">71 (74.0%)</text>
<text text-anchor="end" x="585.5" y="-584.2" font-family="Times,serif" font-size="51.00">of 89 (92.7%)</text>
</g>
<!-- N5&#45;&gt;N7 -->
<g id="edge6" class="edge"><title>N5&#45;&gt;N7</title>
<path fill="none" stroke="black" stroke-width="2" d="M442,-903.993C442,-893.231 442,-879.072 442,-863.295"/>
<polygon fill="black" stroke="black" stroke-width="2" points="445.5,-863.279 442,-853.279 438.5,-863.279 445.5,-863.279"/>
<text text-anchor="middle" x="449" y="-874.8" font-family="Times,serif" font-size="14.00">89</text>
</g>
<!-- N9 -->
<g id="node10" class="node"><title>N9</title>
<polygon fill="none" stroke="black" points="700.5,-748 611.5,-748 611.5,-670 700.5,-670 700.5,-748"/>
<text text-anchor="middle" x="656" y="-733.52" font-family="Times,serif" font-size="13.10">mps</text>
<text text-anchor="middle" x="656" y="-719.52" font-family="Times,serif" font-size="13.10">BinInFreqV1</text>
<text text-anchor="middle" x="656" y="-705.52" font-family="Times,serif" font-size="13.10">Run</text>
<text text-anchor="end" x="692.5" y="-691.52" font-family="Times,serif" font-size="13.10">1 (1.0%)</text>
<text text-anchor="end" x="692.5" y="-677.52" font-family="Times,serif" font-size="13.10">of 4 (4.2%)</text>
</g>
<!-- N5&#45;&gt;N9 -->
<g id="edge8" class="edge"><title>N5&#45;&gt;N9</title>
<path fill="none" stroke="black" d="M474.823,-918.316C510.876,-909.36 568.257,-890.1 603,-853 627.471,-826.869 640.877,-788.448 648.081,-758.01"/>
<polygon fill="black" stroke="black" points="651.547,-758.543 650.293,-748.023 644.713,-757.029 651.547,-758.543"/>
<text text-anchor="middle" x="584.5" y="-874.8" font-family="Times,serif" font-size="14.00">4</text>
</g>
<!-- N16 -->
<g id="node17" class="node"><title>N16</title>
<polygon fill="none" stroke="black" points="773,-731 719,-731 719,-687 773,-687 773,-731"/>
<text text-anchor="middle" x="746" y="-720.6" font-family="Times,serif" font-size="8.00">mps</text>
<text text-anchor="middle" x="746" y="-711.6" font-family="Times,serif" font-size="8.00">MatPencil</text>
<text text-anchor="end" x="765" y="-702.6" font-family="Times,serif" font-size="8.00">0 (0.0%)</text>
<text text-anchor="end" x="765" y="-693.6" font-family="Times,serif" font-size="8.00">of 2 (2.1%)</text>
</g>
<!-- N5&#45;&gt;N16 -->
<g id="edge13" class="edge"><title>N5&#45;&gt;N16</title>
<path fill="none" stroke="black" d="M474.814,-920.415C538.881,-910.81 677.221,-886.645 710,-853 739.052,-823.181 745.721,-773.544 746.721,-741.298"/>
<polygon fill="black" stroke="black" points="750.224,-741.133 746.867,-731.083 743.224,-741.032 750.224,-741.133"/>
<text text-anchor="middle" x="680.5" y="-874.8" font-family="Times,serif" font-size="14.00">2</text>
</g>
<!-- N18 -->
<g id="node19" class="node"><title>N18</title>
<polygon fill="none" stroke="black" points="854.5,-741 791.5,-741 791.5,-677 854.5,-677 854.5,-741"/>
<text text-anchor="middle" x="823" y="-726.52" font-family="Times,serif" font-size="13.10">mps</text>
<text text-anchor="middle" x="823" y="-712.52" font-family="Times,serif" font-size="13.10">Window</text>
<text text-anchor="middle" x="823" y="-698.52" font-family="Times,serif" font-size="13.10">Window</text>
<text text-anchor="end" x="846.5" y="-684.52" font-family="Times,serif" font-size="13.10">1 (1.0%)</text>
</g>
<!-- N5&#45;&gt;N18 -->
<g id="edge18" class="edge"><title>N5&#45;&gt;N18</title>
<path fill="none" stroke="black" d="M474.565,-922.726C551.274,-916.673 740.03,-897.495 782,-853 807.872,-825.571 817.57,-782.918 821.126,-751.327"/>
<polygon fill="black" stroke="black" points="824.639,-751.364 822.112,-741.075 817.671,-750.694 824.639,-751.364"/>
<text text-anchor="middle" x="756.5" y="-874.8" font-family="Times,serif" font-size="14.00">1</text>
</g>
<!-- N6&#45;&gt;N4 -->
<g id="edge5" class="edge"><title>N6&#45;&gt;N4</title>
<path fill="none" stroke="black" stroke-width="2" d="M442,-1102.84C442,-1090.97 442,-1075.85 442,-1062.19"/>
<polygon fill="black" stroke="black" stroke-width="2" points="445.5,-1062.12 442,-1052.12 438.5,-1062.12 445.5,-1062.12"/>
<text text-anchor="middle" x="449" y="-1073.8" font-family="Times,serif" font-size="14.00">96</text>
</g>
<!-- N8 -->
<g id="node9" class="node"><title>N8</title>
<polygon fill="none" stroke="black" points="533,-514 351,-514 351,-407 533,-407 533,-514"/>
<text text-anchor="middle" x="442" y="-486.24" font-family="Times,serif" font-size="29.70">mps</text>
<text text-anchor="middle" x="442" y="-453.24" font-family="Times,serif" font-size="29.70">SinCosTwoPi</text>
<text text-anchor="end" x="525" y="-420.24" font-family="Times,serif" font-size="29.70">18 (18.8%)</text>
</g>
<!-- N7&#45;&gt;N8 -->
<g id="edge7" class="edge"><title>N7&#45;&gt;N8</title>
<path fill="none" stroke="black" d="M442,-564.967C442,-550.863 442,-537.114 442,-524.485"/>
<polygon fill="black" stroke="black" points="445.5,-524.157 442,-514.157 438.5,-524.157 445.5,-524.157"/>
<text text-anchor="middle" x="449" y="-535.8" font-family="Times,serif" font-size="14.00">15</text>
</g>
<!-- N12 -->
<g id="node13" class="node"><title>N12</title>
<polygon fill="none" stroke="black" points="333,-478 279,-478 279,-443 333,-443 333,-478"/>
<text text-anchor="middle" x="306" y="-467.6" font-family="Times,serif" font-size="8.00">apply_dit</text>
<text text-anchor="end" x="325" y="-458.6" font-family="Times,serif" font-size="8.00">0 (0.0%)</text>
<text text-anchor="end" x="325" y="-449.6" font-family="Times,serif" font-size="8.00">of 3 (3.1%)</text>
</g>
<!-- N7&#45;&gt;N12 -->
<g id="edge11" class="edge"><title>N7&#45;&gt;N12</title>
<path fill="none" stroke="black" d="M363.085,-564.967C346.47,-534.851 330.747,-506.354 320.026,-486.922"/>
<polygon fill="black" stroke="black" points="323.078,-485.208 315.182,-478.143 316.949,-488.589 323.078,-485.208"/>
<text text-anchor="middle" x="352.5" y="-535.8" font-family="Times,serif" font-size="14.00">3</text>
</g>
<!-- N9&#45;&gt;N8 -->
<g id="edge10" class="edge"><title>N9&#45;&gt;N8</title>
<path fill="none" stroke="black" d="M648.845,-669.739C641.525,-638.852 627.637,-595.642 603,-565 586.291,-544.219 564.237,-526.296 541.832,-511.481"/>
<polygon fill="black" stroke="black" points="543.542,-508.42 533.237,-505.956 539.756,-514.308 543.542,-508.42"/>
<text text-anchor="middle" x="588.5" y="-535.8" font-family="Times,serif" font-size="14.00">3</text>
</g>
<!-- N10 -->
<g id="node11" class="node"><title>N10</title>
<polygon fill="none" stroke="black" points="351,-229 261,-229 261,-179 351,-179 351,-229"/>
<text text-anchor="middle" x="306" y="-214.52" font-family="Times,serif" font-size="13.10">apply@1b6f0</text>
<text text-anchor="end" x="343" y="-200.52" font-family="Times,serif" font-size="13.10">1 (1.0%)</text>
<text text-anchor="end" x="343" y="-186.52" font-family="Times,serif" font-size="13.10">of 3 (3.1%)</text>
</g>
<!-- N15 -->
<g id="node16" class="node"><title>N15</title>
<polygon fill="none" stroke="black" points="336,-128 276,-128 276,-93 336,-93 336,-128"/>
<text text-anchor="middle" x="306" y="-117.6" font-family="Times,serif" font-size="8.00">apply@1cad0</text>
<text text-anchor="end" x="328" y="-108.6" font-family="Times,serif" font-size="8.00">0 (0.0%)</text>
<text text-anchor="end" x="328" y="-99.6" font-family="Times,serif" font-size="8.00">of 2 (2.1%)</text>
</g>
<!-- N10&#45;&gt;N15 -->
<g id="edge15" class="edge"><title>N10&#45;&gt;N15</title>
<path fill="none" stroke="black" d="M306,-178.959C306,-166.467 306,-151.163 306,-138.291"/>
<polygon fill="black" stroke="black" points="309.5,-138.166 306,-128.166 302.5,-138.166 309.5,-138.166"/>
<text text-anchor="middle" x="309.5" y="-149.8" font-family="Times,serif" font-size="14.00">2</text>
</g>
<!-- N11 -->
<g id="node12" class="node"><title>N11</title>
<polygon fill="none" stroke="black" points="335.5,-335.5 276.5,-335.5 276.5,-300.5 335.5,-300.5 335.5,-335.5"/>
<text text-anchor="middle" x="306" y="-325.1" font-family="Times,serif" font-size="8.00">apply@20f00</text>
<text text-anchor="end" x="327.5" y="-316.1" font-family="Times,serif" font-size="8.00">0 (0.0%)</text>
<text text-anchor="end" x="327.5" y="-307.1" font-family="Times,serif" font-size="8.00">of 3 (3.1%)</text>
</g>
<!-- N11&#45;&gt;N10 -->
<g id="edge9" class="edge"><title>N11&#45;&gt;N10</title>
<path fill="none" stroke="black" d="M306,-300.474C306,-284.411 306,-259.531 306,-239.197"/>
<polygon fill="black" stroke="black" points="309.5,-239.048 306,-229.048 302.5,-239.048 309.5,-239.048"/>
<text text-anchor="middle" x="309.5" y="-250.8" font-family="Times,serif" font-size="14.00">3</text>
</g>
<!-- N12&#45;&gt;N11 -->
<g id="edge12" class="edge"><title>N12&#45;&gt;N11</title>
<path fill="none" stroke="black" d="M306,-442.831C306,-418.854 306,-374.373 306,-345.761"/>
<polygon fill="black" stroke="black" points="309.5,-345.647 306,-335.647 302.5,-345.647 309.5,-345.647"/>
<text text-anchor="middle" x="309.5" y="-377.8" font-family="Times,serif" font-size="14.00">3</text>
</g>
<!-- N13 -->
<g id="node14" class="node"><title>N13</title>
<polygon fill="none" stroke="black" points="773,-487 719,-487 719,-434 773,-434 773,-487"/>
<text text-anchor="middle" x="746" y="-476.6" font-family="Times,serif" font-size="8.00">Eigen</text>
<text text-anchor="middle" x="746" y="-467.6" font-family="Times,serif" font-size="8.00">JacobiSVD</text>
<text text-anchor="middle" x="746" y="-458.6" font-family="Times,serif" font-size="8.00">compute</text>
<text text-anchor="end" x="765" y="-449.6" font-family="Times,serif" font-size="8.00">0 (0.0%)</text>
<text text-anchor="end" x="765" y="-440.6" font-family="Times,serif" font-size="8.00">of 2 (2.1%)</text>
</g>
<!-- N14 -->
<g id="node15" class="node"><title>N14</title>
<polygon fill="none" stroke="black" points="817.5,-356 674.5,-356 674.5,-280 817.5,-280 817.5,-356"/>
<text text-anchor="middle" x="746" y="-339.84" font-family="Times,serif" font-size="15.20">Eigen</text>
<text text-anchor="middle" x="746" y="-322.84" font-family="Times,serif" font-size="15.20">internal</text>
<text text-anchor="middle" x="746" y="-305.84" font-family="Times,serif" font-size="15.20">real_2x2_jacobi_svd</text>
<text text-anchor="end" x="809.5" y="-288.84" font-family="Times,serif" font-size="15.20">2 (2.1%)</text>
</g>
<!-- N13&#45;&gt;N14 -->
<g id="edge16" class="edge"><title>N13&#45;&gt;N14</title>
<path fill="none" stroke="black" d="M746,-433.73C746,-414.906 746,-388.845 746,-366.317"/>
<polygon fill="black" stroke="black" points="749.5,-366.254 746,-356.254 742.5,-366.254 749.5,-366.254"/>
<text text-anchor="middle" x="749.5" y="-377.8" font-family="Times,serif" font-size="14.00">2</text>
</g>
<!-- N17 -->
<g id="node18" class="node"><title>N17</title>
<polygon fill="none" stroke="black" points="341,-42 271,-42 271,-0 341,-0 341,-42"/>
<text text-anchor="middle" x="306" y="-25.84" font-family="Times,serif" font-size="15.20">t2_25</text>
<text text-anchor="end" x="333" y="-8.84" font-family="Times,serif" font-size="15.20">2 (2.1%)</text>
</g>
<!-- N15&#45;&gt;N17 -->
<g id="edge14" class="edge"><title>N15&#45;&gt;N17</title>
<path fill="none" stroke="black" d="M306,-92.6291C306,-81.2653 306,-65.9512 306,-52.4877"/>
<polygon fill="black" stroke="black" points="309.5,-52.1978 306,-42.1979 302.5,-52.1979 309.5,-52.1978"/>
<text text-anchor="middle" x="309.5" y="-63.8" font-family="Times,serif" font-size="14.00">2</text>
</g>
<!-- N16&#45;&gt;N13 -->
<g id="edge17" class="edge"><title>N16&#45;&gt;N13</title>
<path fill="none" stroke="black" d="M746,-686.984C746,-644.83 746,-549.541 746,-497.343"/>
<polygon fill="black" stroke="black" points="749.5,-497.2 746,-487.2 742.5,-497.2 749.5,-497.2"/>
<text text-anchor="middle" x="749.5" y="-535.8" font-family="Times,serif" font-size="14.00">2</text>
</g>
</g>
</g></svg>
