<?xml version="1.0" encoding="UTF-8" standalone="no"?>
<!DOCTYPE svg PUBLIC "-//W3C//DTD SVG 1.1//EN"
 "http://www.w3.org/Graphics/SVG/1.1/DTD/svg11.dtd">
<!-- Generated by graphviz version 2.38.0 (20140413.2041)
 -->
<!-- Title: ./bazel&#45;bin/demo1_main; 164 samples Pages: 1 -->
<svg width="100%" height="100%"
  xmlns="http://www.w3.org/2000/svg" xmlns:xlink="http://www.w3.org/1999/xlink">
<script type="text/ecmascript"><![CDATA[
// SVGPan
// http://www.cyberz.org/blog/2009/12/08/svgpan-a-javascript-svg-panzoomdrag-library/
// Local modification: if(true || ...) below to force panning, never moving.

/**
 *  SVGPan library 1.2
 * ====================
 *
 * Given an unique existing element with id "viewport", including the
 * the library into any SVG adds the following capabilities:
 *
 *  - Mouse panning
 *  - Mouse zooming (using the wheel)
 *  - Object dargging
 *
 * Known issues:
 *
 *  - Zooming (while panning) on Safari has still some issues
 *
 * Releases:
 *
 * 1.2, Sat Mar 20 08:42:50 GMT 2010, Zeng Xiaohui
 *	Fixed a bug with browser mouse handler interaction
 *
 * 1.1, Wed Feb  3 17:39:33 GMT 2010, Zeng Xiaohui
 *	Updated the zoom code to support the mouse wheel on Safari/Chrome
 *
 * 1.0, Andrea Leofreddi
 *	First release
 *
 * This code is licensed under the following BSD license:
 *
 * Copyright 2009-2010 Andrea Leofreddi <a.leofreddi@itcharm.com>. All rights reserved.
 *
 * Redistribution and use in source and binary forms, with or without modification, are
 * permitted provided that the following conditions are met:
 *
 *    1. Redistributions of source code must retain the above copyright notice, this list of
 *       conditions and the following disclaimer.
 *
 *    2. Redistributions in binary form must reproduce the above copyright notice, this list
 *       of conditions and the following disclaimer in the documentation and/or other materials
 *       provided with the distribution.
 *
 * THIS SOFTWARE IS PROVIDED BY Andrea Leofreddi ``AS IS'' AND ANY EXPRESS OR IMPLIED
 * WARRANTIES, INCLUDING, BUT NOT LIMITED TO, THE IMPLIED WARRANTIES OF MERCHANTABILITY AND
 * FITNESS FOR A PARTICULAR PURPOSE ARE DISCLAIMED. IN NO EVENT SHALL Andrea Leofreddi OR
 * CONTRIBUTORS BE LIABLE FOR ANY DIRECT, INDIRECT, INCIDENTAL, SPECIAL, EXEMPLARY, OR
 * CONSEQUENTIAL DAMAGES (INCLUDING, BUT NOT LIMITED TO, PROCUREMENT OF SUBSTITUTE GOODS OR
 * SERVICES; LOSS OF USE, DATA, OR PROFITS; OR BUSINESS INTERRUPTION) HOWEVER CAUSED AND ON
 * ANY THEORY OF LIABILITY, WHETHER IN CONTRACT, STRICT LIABILITY, OR TORT (INCLUDING
 * NEGLIGENCE OR OTHERWISE) ARISING IN ANY WAY OUT OF THE USE OF THIS SOFTWARE, EVEN IF
 * ADVISED OF THE POSSIBILITY OF SUCH DAMAGE.
 *
 * The views and conclusions contained in the software and documentation are those of the
 * authors and should not be interpreted as representing official policies, either expressed
 * or implied, of Andrea Leofreddi.
 */

var root = document.documentElement;

var state = 'none', stateTarget, stateOrigin, stateTf;

setupHandlers(root);

/**
 * Register handlers
 */
function setupHandlers(root){
	setAttributes(root, {
		"onmouseup" : "add(evt)",
		"onmousedown" : "handleMouseDown(evt)",
		"onmousemove" : "handleMouseMove(evt)",
		"onmouseup" : "handleMouseUp(evt)",
		//"onmouseout" : "handleMouseUp(evt)", // Decomment this to stop the pan functionality when dragging out of the SVG element
	});

	if(navigator.userAgent.toLowerCase().indexOf('webkit') >= 0)
		window.addEventListener('mousewheel', handleMouseWheel, false); // Chrome/Safari
	else
		window.addEventListener('DOMMouseScroll', handleMouseWheel, false); // Others

	var g = svgDoc.getElementById("svg");
	g.width = "100%";
	g.height = "100%";
}

/**
 * Instance an SVGPoint object with given event coordinates.
 */
function getEventPoint(evt) {
	var p = root.createSVGPoint();

	p.x = evt.clientX;
	p.y = evt.clientY;

	return p;
}

/**
 * Sets the current transform matrix of an element.
 */
function setCTM(element, matrix) {
	var s = "matrix(" + matrix.a + "," + matrix.b + "," + matrix.c + "," + matrix.d + "," + matrix.e + "," + matrix.f + ")";

	element.setAttribute("transform", s);
}

/**
 * Dumps a matrix to a string (useful for debug).
 */
function dumpMatrix(matrix) {
	var s = "[ " + matrix.a + ", " + matrix.c + ", " + matrix.e + "\n  " + matrix.b + ", " + matrix.d + ", " + matrix.f + "\n  0, 0, 1 ]";

	return s;
}

/**
 * Sets attributes of an element.
 */
function setAttributes(element, attributes){
	for (i in attributes)
		element.setAttributeNS(null, i, attributes[i]);
}

/**
 * Handle mouse move event.
 */
function handleMouseWheel(evt) {
	if(evt.preventDefault)
		evt.preventDefault();

	evt.returnValue = false;

	var svgDoc = evt.target.ownerDocument;

	var delta;

	if(evt.wheelDelta)
		delta = evt.wheelDelta / 3600; // Chrome/Safari
	else
		delta = evt.detail / -90; // Mozilla

	var z = 1 + delta; // Zoom factor: 0.9/1.1

	var g = svgDoc.getElementById("viewport");

	var p = getEventPoint(evt);

	p = p.matrixTransform(g.getCTM().inverse());

	// Compute new scale matrix in current mouse position
	var k = root.createSVGMatrix().translate(p.x, p.y).scale(z).translate(-p.x, -p.y);

        setCTM(g, g.getCTM().multiply(k));

	stateTf = stateTf.multiply(k.inverse());
}

/**
 * Handle mouse move event.
 */
function handleMouseMove(evt) {
	if(evt.preventDefault)
		evt.preventDefault();

	evt.returnValue = false;

	var svgDoc = evt.target.ownerDocument;

	var g = svgDoc.getElementById("viewport");

	if(state == 'pan') {
		// Pan mode
		var p = getEventPoint(evt).matrixTransform(stateTf);

		setCTM(g, stateTf.inverse().translate(p.x - stateOrigin.x, p.y - stateOrigin.y));
	} else if(state == 'move') {
		// Move mode
		var p = getEventPoint(evt).matrixTransform(g.getCTM().inverse());

		setCTM(stateTarget, root.createSVGMatrix().translate(p.x - stateOrigin.x, p.y - stateOrigin.y).multiply(g.getCTM().inverse()).multiply(stateTarget.getCTM()));

		stateOrigin = p;
	}
}

/**
 * Handle click event.
 */
function handleMouseDown(evt) {
	if(evt.preventDefault)
		evt.preventDefault();

	evt.returnValue = false;

	var svgDoc = evt.target.ownerDocument;

	var g = svgDoc.getElementById("viewport");

	if(true || evt.target.tagName == "svg") {
		// Pan mode
		state = 'pan';

		stateTf = g.getCTM().inverse();

		stateOrigin = getEventPoint(evt).matrixTransform(stateTf);
	} else {
		// Move mode
		state = 'move';

		stateTarget = evt.target;

		stateTf = g.getCTM().inverse();

		stateOrigin = getEventPoint(evt).matrixTransform(stateTf);
	}
}

/**
 * Handle mouse button release event.
 */
function handleMouseUp(evt) {
	if(evt.preventDefault)
		evt.preventDefault();

	evt.returnValue = false;

	var svgDoc = evt.target.ownerDocument;

	if(state == 'pan' || state == 'move') {
		// Quit pan mode
		state = '';
	}
}

]]></script>
<g id="viewport" transform="translate(0,0)">
<g id="viewport" class="graph" transform="scale(1 1) rotate(0) translate(4 1327)">
<title>./bazel&#45;bin/demo1_main; 164 samples</title>
<polygon fill="white" stroke="none" points="-4,4 -4,-1327 1069,-1327 1069,4 -4,4"/>
<!-- Legend -->
<g id="node1" class="node"><title>Legend</title>
<text text-anchor="start" x="8" y="-1299.8" font-family="Times,serif" font-size="24.00">./bazel&#45;bin/demo1_main</text>
<text text-anchor="start" x="8" y="-1273.8" font-family="Times,serif" font-size="24.00">Total samples: 164</text>
<text text-anchor="start" x="8" y="-1247.8" font-family="Times,serif" font-size="24.00">Focusing on: 164</text>
<text text-anchor="start" x="8" y="-1221.8" font-family="Times,serif" font-size="24.00">Dropped nodes with &lt;= 0 abs(samples)</text>
<text text-anchor="start" x="8" y="-1195.8" font-family="Times,serif" font-size="24.00">Dropped edges with &lt;= 0 samples</text>
</g>
<!-- N1 -->
<g id="node2" class="node"><title>N1</title>
<polygon fill="none" stroke="black" points="481,-1134 407,-1134 407,-1099 481,-1099 481,-1134"/>
<text text-anchor="middle" x="444" y="-1123.6" font-family="Times,serif" font-size="8.00">__libc_start_main</text>
<text text-anchor="end" x="473" y="-1114.6" font-family="Times,serif" font-size="8.00">0 (0.0%)</text>
<text text-anchor="end" x="473" y="-1105.6" font-family="Times,serif" font-size="8.00">of 164 (100.0%)</text>
</g>
<!-- N3 -->
<g id="node4" class="node"><title>N3</title>
<polygon fill="none" stroke="black" points="478.5,-1048 409.5,-1048 409.5,-1013 478.5,-1013 478.5,-1048"/>
<text text-anchor="middle" x="444" y="-1037.6" font-family="Times,serif" font-size="8.00">main</text>
<text text-anchor="end" x="470.5" y="-1028.6" font-family="Times,serif" font-size="8.00">0 (0.0%)</text>
<text text-anchor="end" x="470.5" y="-1019.6" font-family="Times,serif" font-size="8.00">of 164 (100.0%)</text>
</g>
<!-- N1&#45;&gt;N3 -->
<g id="edge3" class="edge"><title>N1&#45;&gt;N3</title>
<path fill="none" stroke="black" stroke-width="2" d="M444,-1098.9C444,-1087.28 444,-1071.51 444,-1058.14"/>
<polygon fill="black" stroke="black" stroke-width="2" points="447.5,-1058.06 444,-1048.06 440.5,-1058.06 447.5,-1058.06"/>
<text text-anchor="middle" x="454.5" y="-1069.8" font-family="Times,serif" font-size="14.00">164</text>
</g>
<!-- N2 -->
<g id="node3" class="node"><title>N2</title>
<polygon fill="none" stroke="black" points="478.5,-1271.5 409.5,-1271.5 409.5,-1236.5 478.5,-1236.5 478.5,-1271.5"/>
<text text-anchor="middle" x="444" y="-1261.1" font-family="Times,serif" font-size="8.00">_start</text>
<text text-anchor="end" x="470.5" y="-1252.1" font-family="Times,serif" font-size="8.00">0 (0.0%)</text>
<text text-anchor="end" x="470.5" y="-1243.1" font-family="Times,serif" font-size="8.00">of 164 (100.0%)</text>
</g>
<!-- N2&#45;&gt;N1 -->
<g id="edge2" class="edge"><title>N2&#45;&gt;N1</title>
<path fill="none" stroke="black" stroke-width="2" d="M444,-1236.39C444,-1213.43 444,-1171.74 444,-1144.33"/>
<polygon fill="black" stroke="black" stroke-width="2" points="447.5,-1144.25 444,-1134.25 440.5,-1144.25 447.5,-1144.25"/>
<text text-anchor="middle" x="454.5" y="-1155.8" font-family="Times,serif" font-size="14.00">164</text>
</g>
<!-- N6 -->
<g id="node7" class="node"><title>N6</title>
<polygon fill="none" stroke="black" points="478.5,-962 409.5,-962 409.5,-918 478.5,-918 478.5,-962"/>
<text text-anchor="middle" x="444" y="-951.6" font-family="Times,serif" font-size="8.00">mps</text>
<text text-anchor="middle" x="444" y="-942.6" font-family="Times,serif" font-size="8.00">Run</text>
<text text-anchor="end" x="470.5" y="-933.6" font-family="Times,serif" font-size="8.00">0 (0.0%)</text>
<text text-anchor="end" x="470.5" y="-924.6" font-family="Times,serif" font-size="8.00">of 164 (100.0%)</text>
</g>
<!-- N3&#45;&gt;N6 -->
<g id="edge5" class="edge"><title>N3&#45;&gt;N6</title>
<path fill="none" stroke="black" stroke-width="2" d="M444,-1012.85C444,-1001.44 444,-985.953 444,-972.277"/>
<polygon fill="black" stroke="black" stroke-width="2" points="447.5,-972.27 444,-962.27 440.5,-972.27 447.5,-972.27"/>
<text text-anchor="middle" x="454.5" y="-983.8" font-family="Times,serif" font-size="14.00">164</text>
</g>
<!-- N4 -->
<g id="node5" class="node"><title>N4</title>
<polygon fill="none" stroke="black" points="478.5,-867 409.5,-867 409.5,-814 478.5,-814 478.5,-867"/>
<text text-anchor="middle" x="444" y="-856.6" font-family="Times,serif" font-size="8.00">mps</text>
<text text-anchor="middle" x="444" y="-847.6" font-family="Times,serif" font-size="8.00">Demo1</text>
<text text-anchor="middle" x="444" y="-838.6" font-family="Times,serif" font-size="8.00">Run</text>
<text text-anchor="end" x="470.5" y="-829.6" font-family="Times,serif" font-size="8.00">0 (0.0%)</text>
<text text-anchor="end" x="470.5" y="-820.6" font-family="Times,serif" font-size="8.00">of 164 (100.0%)</text>
</g>
<!-- N5 -->
<g id="node6" class="node"><title>N5</title>
<polygon fill="none" stroke="black" points="478.5,-763 409.5,-763 409.5,-719 478.5,-719 478.5,-763"/>
<text text-anchor="middle" x="444" y="-752.6" font-family="Times,serif" font-size="8.00">mps</text>
<text text-anchor="middle" x="444" y="-743.6" font-family="Times,serif" font-size="8.00">Iterate</text>
<text text-anchor="end" x="470.5" y="-734.6" font-family="Times,serif" font-size="8.00">0 (0.0%)</text>
<text text-anchor="end" x="470.5" y="-725.6" font-family="Times,serif" font-size="8.00">of 164 (100.0%)</text>
</g>
<!-- N4&#45;&gt;N5 -->
<g id="edge4" class="edge"><title>N4&#45;&gt;N5</title>
<path fill="none" stroke="black" stroke-width="2" d="M444,-813.883C444,-801.418 444,-786.325 444,-773.194"/>
<polygon fill="black" stroke="black" stroke-width="2" points="447.5,-773.171 444,-763.171 440.5,-773.171 447.5,-773.171"/>
<text text-anchor="middle" x="454.5" y="-784.8" font-family="Times,serif" font-size="14.00">164</text>
</g>
<!-- N7 -->
<g id="node8" class="node"><title>N7</title>
<polygon fill="none" stroke="black" points="583.5,-668 304.5,-668 304.5,-425 583.5,-425 583.5,-668"/>
<text text-anchor="middle" x="444" y="-629.52" font-family="Times,serif" font-size="43.10">mps</text>
<text text-anchor="middle" x="444" y="-582.52" font-family="Times,serif" font-size="43.10">BinInTimeV2</text>
<text text-anchor="middle" x="444" y="-535.52" font-family="Times,serif" font-size="43.10">Run</text>
<text text-anchor="end" x="575.5" y="-488.52" font-family="Times,serif" font-size="43.10">81 (49.4%)</text>
<text text-anchor="end" x="575.5" y="-441.52" font-family="Times,serif" font-size="43.10">of 152 (92.7%)</text>
</g>
<!-- N5&#45;&gt;N7 -->
<g id="edge6" class="edge"><title>N5&#45;&gt;N7</title>
<path fill="none" stroke="black" stroke-width="2" d="M444,-718.664C444,-707.903 444,-693.874 444,-678.475"/>
<polygon fill="black" stroke="black" stroke-width="2" points="447.5,-678.179 444,-668.179 440.5,-678.179 447.5,-678.179"/>
<text text-anchor="middle" x="454.5" y="-689.8" font-family="Times,serif" font-size="14.00">152</text>
</g>
<!-- N10 -->
<g id="node11" class="node"><title>N10</title>
<polygon fill="none" stroke="black" points="214,-583 134,-583 134,-510 214,-510 214,-583"/>
<text text-anchor="middle" x="174" y="-569.48" font-family="Times,serif" font-size="11.90">mps</text>
<text text-anchor="middle" x="174" y="-556.48" font-family="Times,serif" font-size="11.90">BinInFreqV1</text>
<text text-anchor="middle" x="174" y="-543.48" font-family="Times,serif" font-size="11.90">Run</text>
<text text-anchor="end" x="206" y="-530.48" font-family="Times,serif" font-size="11.90">1 (0.6%)</text>
<text text-anchor="end" x="206" y="-517.48" font-family="Times,serif" font-size="11.90">of 8 (4.9%)</text>
</g>
<!-- N5&#45;&gt;N10 -->
<g id="edge9" class="edge"><title>N5&#45;&gt;N10</title>
<path fill="none" stroke="black" d="M409.5,-738.208C361.274,-733.853 273.916,-718.95 223,-668 202.726,-647.712 190.508,-617.897 183.343,-593.001"/>
<polygon fill="black" stroke="black" points="186.638,-591.776 180.661,-583.028 179.878,-593.594 186.638,-591.776"/>
<text text-anchor="middle" x="271.5" y="-689.8" font-family="Times,serif" font-size="14.00">8</text>
</g>
<!-- N16 -->
<g id="node17" class="node"><title>N16</title>
<polygon fill="none" stroke="black" points="286,-568.5 232,-568.5 232,-524.5 286,-524.5 286,-568.5"/>
<text text-anchor="middle" x="259" y="-558.1" font-family="Times,serif" font-size="8.00">mps</text>
<text text-anchor="middle" x="259" y="-549.1" font-family="Times,serif" font-size="8.00">MatPencil</text>
<text text-anchor="end" x="278" y="-540.1" font-family="Times,serif" font-size="8.00">0 (0.0%)</text>
<text text-anchor="end" x="278" y="-531.1" font-family="Times,serif" font-size="8.00">of 2 (1.2%)</text>
</g>
<!-- N5&#45;&gt;N16 -->
<g id="edge16" class="edge"><title>N5&#45;&gt;N16</title>
<path fill="none" stroke="black" d="M409.399,-731.78C375.795,-722.052 325.637,-702.623 296,-668 274.487,-642.868 265.479,-605.398 261.709,-578.926"/>
<polygon fill="black" stroke="black" points="265.141,-578.161 260.431,-568.671 258.195,-579.027 265.141,-578.161"/>
<text text-anchor="middle" x="336.5" y="-689.8" font-family="Times,serif" font-size="14.00">2</text>
</g>
<!-- N18 -->
<g id="node19" class="node"><title>N18</title>
<polygon fill="none" stroke="black" points="855,-573 801,-573 801,-520 855,-520 855,-573"/>
<text text-anchor="middle" x="828" y="-562.6" font-family="Times,serif" font-size="8.00">mps</text>
<text text-anchor="middle" x="828" y="-553.6" font-family="Times,serif" font-size="8.00">Window</text>
<text text-anchor="middle" x="828" y="-544.6" font-family="Times,serif" font-size="8.00">Window</text>
<text text-anchor="end" x="847" y="-535.6" font-family="Times,serif" font-size="8.00">0 (0.0%)</text>
<text text-anchor="end" x="847" y="-526.6" font-family="Times,serif" font-size="8.00">of 2 (1.2%)</text>
</g>
<!-- N5&#45;&gt;N18 -->
<g id="edge13" class="edge"><title>N5&#45;&gt;N18</title>
<path fill="none" stroke="black" d="M478.737,-723.501C509.007,-709.054 554.037,-687.4 593,-668 663.844,-632.726 745.989,-590.238 791.989,-566.3"/>
<polygon fill="black" stroke="black" points="793.714,-569.348 800.966,-561.625 790.48,-563.14 793.714,-569.348"/>
<text text-anchor="middle" x="559.5" y="-689.8" font-family="Times,serif" font-size="14.00">2</text>
</g>
<!-- N6&#45;&gt;N4 -->
<g id="edge1" class="edge"><title>N6&#45;&gt;N4</title>
<path fill="none" stroke="black" stroke-width="2" d="M444,-917.844C444,-905.972 444,-890.845 444,-877.193"/>
<polygon fill="black" stroke="black" stroke-width="2" points="447.5,-877.119 444,-867.119 440.5,-877.119 447.5,-877.119"/>
<text text-anchor="middle" x="454.5" y="-888.8" font-family="Times,serif" font-size="14.00">164</text>
</g>
<!-- N8 -->
<g id="node9" class="node"><title>N8</title>
<polygon fill="none" stroke="black" points="430,-374 212,-374 212,-246 430,-246 430,-374"/>
<text text-anchor="middle" x="321" y="-340.64" font-family="Times,serif" font-size="36.70">sincos</text>
<text text-anchor="end" x="422" y="-300.64" font-family="Times,serif" font-size="36.70">54 (32.9%)</text>
<text text-anchor="end" x="422" y="-260.64" font-family="Times,serif" font-size="36.70">of 57 (34.8%)</text>
</g>
<!-- N7&#45;&gt;N8 -->
<g id="edge7" class="edge"><title>N7&#45;&gt;N8</title>
<path fill="none" stroke="black" stroke-width="1.90244" d="M380.698,-424.815C373.238,-410.591 365.812,-396.434 358.862,-383.183"/>
<polygon fill="black" stroke="black" stroke-width="1.90244" points="361.876,-381.395 354.131,-374.165 355.677,-384.646 361.876,-381.395"/>
<text text-anchor="middle" x="374" y="-395.8" font-family="Times,serif" font-size="14.00">52</text>
</g>
<!-- N9 -->
<g id="node10" class="node"><title>N9</title>
<polygon fill="none" stroke="black" points="725.5,-58 618.5,-58 618.5,-0 725.5,-0 725.5,-58"/>
<text text-anchor="middle" x="672" y="-35.92" font-family="Times,serif" font-size="22.60">__muldc3</text>
<text text-anchor="end" x="717.5" y="-10.92" font-family="Times,serif" font-size="22.60">14 (8.5%)</text>
</g>
<!-- N7&#45;&gt;N9 -->
<g id="edge8" class="edge"><title>N7&#45;&gt;N9</title>
<path fill="none" stroke="black" d="M583.671,-458.489C611.229,-434.59 636.651,-406.232 653,-374 703.981,-273.49 690.209,-134.583 679.385,-68.2481"/>
<polygon fill="black" stroke="black" points="682.81,-67.5137 677.684,-58.2419 675.91,-68.6872 682.81,-67.5137"/>
<text text-anchor="middle" x="696" y="-216.8" font-family="Times,serif" font-size="14.00">12</text>
</g>
<!-- N11 -->
<g id="node12" class="node"><title>N11</title>
<polygon fill="none" stroke="black" points="957.5,-331 848.5,-331 848.5,-289 957.5,-289 957.5,-331"/>
<text text-anchor="middle" x="903" y="-314.36" font-family="Times,serif" font-size="15.80">__fmod_finite</text>
<text text-anchor="end" x="949.5" y="-297.36" font-family="Times,serif" font-size="15.80">4 (2.4%)</text>
</g>
<!-- N7&#45;&gt;N11 -->
<g id="edge11" class="edge"><title>N7&#45;&gt;N11</title>
<path fill="none" stroke="black" d="M583.859,-499.199C662.466,-469.729 760.294,-427.106 839,-374 853.631,-364.128 867.837,-350.668 879.133,-338.723"/>
<polygon fill="black" stroke="black" points="881.911,-340.873 886.111,-331.146 876.762,-336.131 881.911,-340.873"/>
<text text-anchor="middle" x="812.5" y="-395.8" font-family="Times,serif" font-size="14.00">4</text>
</g>
<!-- N19 -->
<g id="node20" class="node"><title>N19</title>
<polygon fill="none" stroke="black" points="643.5,-327 520.5,-327 520.5,-293 643.5,-293 643.5,-327"/>
<text text-anchor="middle" x="582" y="-313.48" font-family="Times,serif" font-size="11.90">__nss_passwd_lookup</text>
<text text-anchor="end" x="635.5" y="-300.48" font-family="Times,serif" font-size="11.90">1 (0.6%)</text>
</g>
<!-- N7&#45;&gt;N19 -->
<g id="edge29" class="edge"><title>N7&#45;&gt;N19</title>
<path fill="none" stroke="black" d="M515.021,-424.815C534.811,-391.187 554.379,-357.936 567.206,-336.139"/>
<polygon fill="black" stroke="black" points="570.381,-337.645 572.436,-327.251 564.348,-334.094 570.381,-337.645"/>
<text text-anchor="middle" x="536.5" y="-395.8" font-family="Times,serif" font-size="14.00">1</text>
</g>
<!-- N22 -->
<g id="node23" class="node"><title>N22</title>
<polygon fill="none" stroke="black" points="830,-327.5 776,-327.5 776,-292.5 830,-292.5 830,-327.5"/>
<text text-anchor="middle" x="803" y="-317.1" font-family="Times,serif" font-size="8.00">apply_dit</text>
<text text-anchor="end" x="822" y="-308.1" font-family="Times,serif" font-size="8.00">0 (0.0%)</text>
<text text-anchor="end" x="822" y="-299.1" font-family="Times,serif" font-size="8.00">of 1 (0.6%)</text>
</g>
<!-- N7&#45;&gt;N22 -->
<g id="edge22" class="edge"><title>N7&#45;&gt;N22</title>
<path fill="none" stroke="black" d="M583.862,-492.778C645.404,-464.496 715.291,-424.872 767,-374 777.629,-363.543 786.124,-349.289 792.188,-336.984"/>
<polygon fill="black" stroke="black" points="795.488,-338.187 796.523,-327.643 789.138,-335.24 795.488,-338.187"/>
<text text-anchor="middle" x="748.5" y="-395.8" font-family="Times,serif" font-size="14.00">1</text>
</g>
<!-- N25 -->
<g id="node26" class="node"><title>N25</title>
<polygon fill="none" stroke="black" points="758,-327 700,-327 700,-293 758,-293 758,-327"/>
<text text-anchor="middle" x="729" y="-313.48" font-family="Times,serif" font-size="11.90">fmod</text>
<text text-anchor="end" x="750" y="-300.48" font-family="Times,serif" font-size="11.90">1 (0.6%)</text>
</g>
<!-- N7&#45;&gt;N25 -->
<g id="edge20" class="edge"><title>N7&#45;&gt;N25</title>
<path fill="none" stroke="black" d="M583.552,-485.28C620.294,-464.505 657.563,-438.392 686,-407 704.145,-386.969 715.682,-358.014 722.186,-337.148"/>
<polygon fill="black" stroke="black" points="725.605,-337.927 725.06,-327.346 718.888,-335.958 725.605,-337.927"/>
<text text-anchor="middle" x="699.5" y="-395.8" font-family="Times,serif" font-size="14.00">1</text>
</g>
<!-- N12 -->
<g id="node13" class="node"><title>N12</title>
<polygon fill="none" stroke="black" points="357.5,-172 284.5,-172 284.5,-132 357.5,-132 357.5,-172"/>
<text text-anchor="middle" x="321" y="-156.16" font-family="Times,serif" font-size="14.80">nearbyint</text>
<text text-anchor="end" x="349.5" y="-140.16" font-family="Times,serif" font-size="14.80">3 (1.8%)</text>
</g>
<!-- N8&#45;&gt;N12 -->
<g id="edge12" class="edge"><title>N8&#45;&gt;N12</title>
<path fill="none" stroke="black" d="M321,-245.998C321,-223.906 321,-200.145 321,-182.171"/>
<polygon fill="black" stroke="black" points="324.5,-182.054 321,-172.054 317.5,-182.054 324.5,-182.054"/>
<text text-anchor="middle" x="324.5" y="-216.8" font-family="Times,serif" font-size="14.00">3</text>
</g>
<!-- N10&#45;&gt;N8 -->
<g id="edge10" class="edge"><title>N10&#45;&gt;N8</title>
<path fill="none" stroke="black" d="M185.717,-509.829C194.459,-485.226 207.532,-452.186 223,-425 232.099,-409.007 236.275,-406.18 248,-392 250.714,-388.717 253.515,-385.386 256.367,-382.04"/>
<polygon fill="black" stroke="black" points="259.225,-384.084 263.096,-374.222 253.92,-379.518 259.225,-384.084"/>
<text text-anchor="middle" x="251.5" y="-395.8" font-family="Times,serif" font-size="14.00">5</text>
</g>
<!-- N10&#45;&gt;N9 -->
<g id="edge26" class="edge"><title>N10&#45;&gt;N9</title>
<path fill="none" stroke="black" d="M173.002,-509.591C172.4,-452.485 175.233,-338.023 203,-246 222.931,-179.948 220.622,-150.151 276,-109 327.833,-70.4834 510.149,-46.49 608.3,-36.0641"/>
<polygon fill="black" stroke="black" points="608.814,-39.5296 618.395,-35.0081 608.085,-32.5676 608.814,-39.5296"/>
<text text-anchor="middle" x="214.5" y="-216.8" font-family="Times,serif" font-size="14.00">1</text>
</g>
<!-- N26 -->
<g id="node27" class="node"><title>N26</title>
<polygon fill="none" stroke="black" points="156,-336.5 94,-336.5 94,-283.5 156,-283.5 156,-336.5"/>
<text text-anchor="middle" x="125" y="-326.1" font-family="Times,serif" font-size="8.00">mps</text>
<text text-anchor="middle" x="125" y="-317.1" font-family="Times,serif" font-size="8.00">Window</text>
<text text-anchor="middle" x="125" y="-308.1" font-family="Times,serif" font-size="8.00">SampleInFreq</text>
<text text-anchor="end" x="148" y="-299.1" font-family="Times,serif" font-size="8.00">0 (0.0%)</text>
<text text-anchor="end" x="148" y="-290.1" font-family="Times,serif" font-size="8.00">of 1 (0.6%)</text>
</g>
<!-- N10&#45;&gt;N26 -->
<g id="edge25" class="edge"><title>N10&#45;&gt;N26</title>
<path fill="none" stroke="black" d="M166.558,-509.884C157.338,-465.759 141.719,-391.011 132.481,-346.8"/>
<polygon fill="black" stroke="black" points="135.86,-345.86 130.388,-336.787 129.008,-347.292 135.86,-345.86"/>
<text text-anchor="middle" x="147.5" y="-395.8" font-family="Times,serif" font-size="14.00">1</text>
</g>
<!-- N13 -->
<g id="node14" class="node"><title>N13</title>
<polygon fill="none" stroke="black" points="502,-336.5 448,-336.5 448,-283.5 502,-283.5 502,-336.5"/>
<text text-anchor="middle" x="475" y="-326.1" font-family="Times,serif" font-size="8.00">Eigen</text>
<text text-anchor="middle" x="475" y="-317.1" font-family="Times,serif" font-size="8.00">JacobiSVD</text>
<text text-anchor="middle" x="475" y="-308.1" font-family="Times,serif" font-size="8.00">compute</text>
<text text-anchor="end" x="494" y="-299.1" font-family="Times,serif" font-size="8.00">0 (0.0%)</text>
<text text-anchor="end" x="494" y="-290.1" font-family="Times,serif" font-size="8.00">of 2 (1.2%)</text>
</g>
<!-- N14 -->
<g id="node15" class="node"><title>N14</title>
<polygon fill="none" stroke="black" points="628,-195 418,-195 418,-109 628,-109 628,-195"/>
<text text-anchor="middle" x="523" y="-181.48" font-family="Times,serif" font-size="11.90">Eigen</text>
<text text-anchor="middle" x="523" y="-168.48" font-family="Times,serif" font-size="11.90">internal</text>
<text text-anchor="middle" x="523" y="-155.48" font-family="Times,serif" font-size="11.90">svd_precondition_2x2_block_to_be_real</text>
<text text-anchor="middle" x="523" y="-142.48" font-family="Times,serif" font-size="11.90">run</text>
<text text-anchor="end" x="620" y="-129.48" font-family="Times,serif" font-size="11.90">1 (0.6%)</text>
<text text-anchor="end" x="620" y="-116.48" font-family="Times,serif" font-size="11.90">of 2 (1.2%)</text>
</g>
<!-- N13&#45;&gt;N14 -->
<g id="edge17" class="edge"><title>N13&#45;&gt;N14</title>
<path fill="none" stroke="black" d="M482.926,-283.24C489.443,-262.061 498.886,-231.371 506.968,-205.102"/>
<polygon fill="black" stroke="black" points="510.395,-205.867 509.991,-195.28 503.705,-203.809 510.395,-205.867"/>
<text text-anchor="middle" x="506.5" y="-216.8" font-family="Times,serif" font-size="14.00">2</text>
</g>
<!-- N14&#45;&gt;N9 -->
<g id="edge23" class="edge"><title>N14&#45;&gt;N9</title>
<path fill="none" stroke="black" d="M575.113,-108.68C592.854,-94.2727 612.463,-78.3489 629.372,-64.6173"/>
<polygon fill="black" stroke="black" points="631.88,-67.0897 637.436,-58.0687 627.467,-61.6558 631.88,-67.0897"/>
<text text-anchor="middle" x="618.5" y="-79.8" font-family="Times,serif" font-size="14.00">1</text>
</g>
<!-- N15 -->
<g id="node16" class="node"><title>N15</title>
<polygon fill="none" stroke="black" points="1039.5,-48 974.5,-48 974.5,-10 1039.5,-10 1039.5,-48"/>
<text text-anchor="middle" x="1007" y="-33.2" font-family="Times,serif" font-size="13.50">gammal</text>
<text text-anchor="end" x="1031.5" y="-18.2" font-family="Times,serif" font-size="13.50">2 (1.2%)</text>
</g>
<!-- N16&#45;&gt;N13 -->
<g id="edge14" class="edge"><title>N16&#45;&gt;N13</title>
<path fill="none" stroke="black" d="M260.824,-524.154C264.021,-498.213 272.704,-454.287 296,-425 314.223,-402.091 325.662,-402.464 353,-392 389.47,-378.041 407.423,-396.974 439,-374 448.769,-366.892 456.272,-356.268 461.834,-345.76"/>
<polygon fill="black" stroke="black" points="465.038,-347.173 466.231,-336.646 458.733,-344.132 465.038,-347.173"/>
<text text-anchor="middle" x="356.5" y="-395.8" font-family="Times,serif" font-size="14.00">2</text>
</g>
<!-- N17 -->
<g id="node18" class="node"><title>N17</title>
<polygon fill="none" stroke="black" points="1040.5,-336.5 975.5,-336.5 975.5,-283.5 1040.5,-283.5 1040.5,-336.5"/>
<text text-anchor="middle" x="1008" y="-326.1" font-family="Times,serif" font-size="8.00">mps</text>
<text text-anchor="middle" x="1008" y="-317.1" font-family="Times,serif" font-size="8.00">Window</text>
<text text-anchor="middle" x="1008" y="-308.1" font-family="Times,serif" font-size="8.00">SampleInTime</text>
<text text-anchor="end" x="1032.5" y="-299.1" font-family="Times,serif" font-size="8.00">0 (0.0%)</text>
<text text-anchor="end" x="1032.5" y="-290.1" font-family="Times,serif" font-size="8.00">of 2 (1.2%)</text>
</g>
<!-- N17&#45;&gt;N15 -->
<g id="edge18" class="edge"><title>N17&#45;&gt;N15</title>
<path fill="none" stroke="black" d="M1004.22,-283.264C1001.04,-260.205 996.729,-225.428 995,-195 992.831,-156.839 992.122,-147.114 995,-109 996.278,-92.0802 999.074,-73.2946 1001.65,-58.2884"/>
<polygon fill="black" stroke="black" points="1005.15,-58.5683 1003.45,-48.1102 998.259,-57.3438 1005.15,-58.5683"/>
<text text-anchor="middle" x="998.5" y="-148.3" font-family="Times,serif" font-size="14.00">1</text>
</g>
<!-- N24 -->
<g id="node25" class="node"><title>N24</title>
<polygon fill="none" stroke="black" points="1065,-169.5 1011,-169.5 1011,-134.5 1065,-134.5 1065,-169.5"/>
<text text-anchor="middle" x="1038" y="-159.1" font-family="Times,serif" font-size="8.00">exp</text>
<text text-anchor="end" x="1057" y="-150.1" font-family="Times,serif" font-size="8.00">0 (0.0%)</text>
<text text-anchor="end" x="1057" y="-141.1" font-family="Times,serif" font-size="8.00">of 1 (0.6%)</text>
</g>
<!-- N17&#45;&gt;N24 -->
<g id="edge21" class="edge"><title>N17&#45;&gt;N24</title>
<path fill="none" stroke="black" d="M1012.95,-283.24C1018.47,-254.568 1027.33,-208.467 1032.9,-179.5"/>
<polygon fill="black" stroke="black" points="1036.34,-180.148 1034.79,-169.667 1029.47,-178.826 1036.34,-180.148"/>
<text text-anchor="middle" x="1028.5" y="-216.8" font-family="Times,serif" font-size="14.00">1</text>
</g>
<!-- N18&#45;&gt;N17 -->
<g id="edge15" class="edge"><title>N18&#45;&gt;N17</title>
<path fill="none" stroke="black" d="M850.302,-519.728C878.514,-486.742 928.103,-427.458 967,-374 973.701,-364.79 980.599,-354.537 986.78,-345.023"/>
<polygon fill="black" stroke="black" points="989.767,-346.849 992.229,-336.544 983.878,-343.064 989.767,-346.849"/>
<text text-anchor="middle" x="955.5" y="-395.8" font-family="Times,serif" font-size="14.00">2</text>
</g>
<!-- N20 -->
<g id="node21" class="node"><title>N20</title>
<polygon fill="none" stroke="black" points="844.5,-46 761.5,-46 761.5,-12 844.5,-12 844.5,-46"/>
<text text-anchor="middle" x="803" y="-32.48" font-family="Times,serif" font-size="11.90">apply@1ee10</text>
<text text-anchor="end" x="836.5" y="-19.48" font-family="Times,serif" font-size="11.90">1 (0.6%)</text>
</g>
<!-- N21 -->
<g id="node22" class="node"><title>N21</title>
<polygon fill="none" stroke="black" points="832.5,-169.5 773.5,-169.5 773.5,-134.5 832.5,-134.5 832.5,-169.5"/>
<text text-anchor="middle" x="803" y="-159.1" font-family="Times,serif" font-size="8.00">apply@20f00</text>
<text text-anchor="end" x="824.5" y="-150.1" font-family="Times,serif" font-size="8.00">0 (0.0%)</text>
<text text-anchor="end" x="824.5" y="-141.1" font-family="Times,serif" font-size="8.00">of 1 (0.6%)</text>
</g>
<!-- N21&#45;&gt;N20 -->
<g id="edge27" class="edge"><title>N21&#45;&gt;N20</title>
<path fill="none" stroke="black" d="M803,-134.175C803,-114.016 803,-80.0022 803,-56.3475"/>
<polygon fill="black" stroke="black" points="806.5,-56.295 803,-46.295 799.5,-56.2951 806.5,-56.295"/>
<text text-anchor="middle" x="806.5" y="-79.8" font-family="Times,serif" font-size="14.00">1</text>
</g>
<!-- N22&#45;&gt;N21 -->
<g id="edge28" class="edge"><title>N22&#45;&gt;N21</title>
<path fill="none" stroke="black" d="M803,-292.305C803,-265.329 803,-211.925 803,-179.644"/>
<polygon fill="black" stroke="black" points="806.5,-179.575 803,-169.575 799.5,-179.575 806.5,-179.575"/>
<text text-anchor="middle" x="806.5" y="-216.8" font-family="Times,serif" font-size="14.00">1</text>
</g>
<!-- N23 -->
<g id="node24" class="node"><title>N23</title>
<polygon fill="none" stroke="black" points="154,-188.5 96,-188.5 96,-115.5 154,-115.5 154,-188.5"/>
<text text-anchor="middle" x="125" y="-174.98" font-family="Times,serif" font-size="11.90">boost</text>
<text text-anchor="middle" x="125" y="-161.98" font-family="Times,serif" font-size="11.90">math</text>
<text text-anchor="middle" x="125" y="-148.98" font-family="Times,serif" font-size="11.90">detail</text>
<text text-anchor="middle" x="125" y="-135.98" font-family="Times,serif" font-size="11.90">erf_imp</text>
<text text-anchor="end" x="146" y="-122.98" font-family="Times,serif" font-size="11.90">1 (0.6%)</text>
</g>
<!-- N24&#45;&gt;N15 -->
<g id="edge19" class="edge"><title>N24&#45;&gt;N15</title>
<path fill="none" stroke="black" d="M1033.69,-134.175C1028.65,-114.491 1020.22,-81.5968 1014.18,-58.0359"/>
<polygon fill="black" stroke="black" points="1017.55,-57.0808 1011.68,-48.2623 1010.77,-58.8181 1017.55,-57.0808"/>
<text text-anchor="middle" x="1025.5" y="-79.8" font-family="Times,serif" font-size="14.00">1</text>
</g>
<!-- N26&#45;&gt;N23 -->
<g id="edge24" class="edge"><title>N26&#45;&gt;N23</title>
<path fill="none" stroke="black" d="M125,-283.24C125,-260.372 125,-226.418 125,-198.912"/>
<polygon fill="black" stroke="black" points="128.5,-198.722 125,-188.722 121.5,-198.722 128.5,-198.722"/>
<text text-anchor="middle" x="128.5" y="-216.8" font-family="Times,serif" font-size="14.00">1</text>
</g>
</g>
</g></svg>
