<?xml version="1.0" encoding="UTF-8" standalone="no"?>
<!DOCTYPE svg PUBLIC "-//W3C//DTD SVG 1.1//EN"
 "http://www.w3.org/Graphics/SVG/1.1/DTD/svg11.dtd">
<!-- Generated by graphviz version 2.38.0 (20140413.2041)
 -->
<!-- Title: ./bazel&#45;bin/demo1_main; 171 samples Pages: 1 -->
<svg width="100%" height="100%"
  xmlns="http://www.w3.org/2000/svg" xmlns:xlink="http://www.w3.org/1999/xlink">
<script type="text/ecmascript"><![CDATA[
// SVGPan
// http://www.cyberz.org/blog/2009/12/08/svgpan-a-javascript-svg-panzoomdrag-library/
// Local modification: if(true || ...) below to force panning, never moving.

/**
 *  SVGPan library 1.2
 * ====================
 *
 * Given an unique existing element with id "viewport", including the
 * the library into any SVG adds the following capabilities:
 *
 *  - Mouse panning
 *  - Mouse zooming (using the wheel)
 *  - Object dargging
 *
 * Known issues:
 *
 *  - Zooming (while panning) on Safari has still some issues
 *
 * Releases:
 *
 * 1.2, Sat Mar 20 08:42:50 GMT 2010, Zeng Xiaohui
 *	Fixed a bug with browser mouse handler interaction
 *
 * 1.1, Wed Feb  3 17:39:33 GMT 2010, Zeng Xiaohui
 *	Updated the zoom code to support the mouse wheel on Safari/Chrome
 *
 * 1.0, Andrea Leofreddi
 *	First release
 *
 * This code is licensed under the following BSD license:
 *
 * Copyright 2009-2010 Andrea Leofreddi <a.leofreddi@itcharm.com>. All rights reserved.
 *
 * Redistribution and use in source and binary forms, with or without modification, are
 * permitted provided that the following conditions are met:
 *
 *    1. Redistributions of source code must retain the above copyright notice, this list of
 *       conditions and the following disclaimer.
 *
 *    2. Redistributions in binary form must reproduce the above copyright notice, this list
 *       of conditions and the following disclaimer in the documentation and/or other materials
 *       provided with the distribution.
 *
 * THIS SOFTWARE IS PROVIDED BY Andrea Leofreddi ``AS IS'' AND ANY EXPRESS OR IMPLIED
 * WARRANTIES, INCLUDING, BUT NOT LIMITED TO, THE IMPLIED WARRANTIES OF MERCHANTABILITY AND
 * FITNESS FOR A PARTICULAR PURPOSE ARE DISCLAIMED. IN NO EVENT SHALL Andrea Leofreddi OR
 * CONTRIBUTORS BE LIABLE FOR ANY DIRECT, INDIRECT, INCIDENTAL, SPECIAL, EXEMPLARY, OR
 * CONSEQUENTIAL DAMAGES (INCLUDING, BUT NOT LIMITED TO, PROCUREMENT OF SUBSTITUTE GOODS OR
 * SERVICES; LOSS OF USE, DATA, OR PROFITS; OR BUSINESS INTERRUPTION) HOWEVER CAUSED AND ON
 * ANY THEORY OF LIABILITY, WHETHER IN CONTRACT, STRICT LIABILITY, OR TORT (INCLUDING
 * NEGLIGENCE OR OTHERWISE) ARISING IN ANY WAY OUT OF THE USE OF THIS SOFTWARE, EVEN IF
 * ADVISED OF THE POSSIBILITY OF SUCH DAMAGE.
 *
 * The views and conclusions contained in the software and documentation are those of the
 * authors and should not be interpreted as representing official policies, either expressed
 * or implied, of Andrea Leofreddi.
 */

var root = document.documentElement;

var state = 'none', stateTarget, stateOrigin, stateTf;

setupHandlers(root);

/**
 * Register handlers
 */
function setupHandlers(root){
	setAttributes(root, {
		"onmouseup" : "add(evt)",
		"onmousedown" : "handleMouseDown(evt)",
		"onmousemove" : "handleMouseMove(evt)",
		"onmouseup" : "handleMouseUp(evt)",
		//"onmouseout" : "handleMouseUp(evt)", // Decomment this to stop the pan functionality when dragging out of the SVG element
	});

	if(navigator.userAgent.toLowerCase().indexOf('webkit') >= 0)
		window.addEventListener('mousewheel', handleMouseWheel, false); // Chrome/Safari
	else
		window.addEventListener('DOMMouseScroll', handleMouseWheel, false); // Others

	var g = svgDoc.getElementById("svg");
	g.width = "100%";
	g.height = "100%";
}

/**
 * Instance an SVGPoint object with given event coordinates.
 */
function getEventPoint(evt) {
	var p = root.createSVGPoint();

	p.x = evt.clientX;
	p.y = evt.clientY;

	return p;
}

/**
 * Sets the current transform matrix of an element.
 */
function setCTM(element, matrix) {
	var s = "matrix(" + matrix.a + "," + matrix.b + "," + matrix.c + "," + matrix.d + "," + matrix.e + "," + matrix.f + ")";

	element.setAttribute("transform", s);
}

/**
 * Dumps a matrix to a string (useful for debug).
 */
function dumpMatrix(matrix) {
	var s = "[ " + matrix.a + ", " + matrix.c + ", " + matrix.e + "\n  " + matrix.b + ", " + matrix.d + ", " + matrix.f + "\n  0, 0, 1 ]";

	return s;
}

/**
 * Sets attributes of an element.
 */
function setAttributes(element, attributes){
	for (i in attributes)
		element.setAttributeNS(null, i, attributes[i]);
}

/**
 * Handle mouse move event.
 */
function handleMouseWheel(evt) {
	if(evt.preventDefault)
		evt.preventDefault();

	evt.returnValue = false;

	var svgDoc = evt.target.ownerDocument;

	var delta;

	if(evt.wheelDelta)
		delta = evt.wheelDelta / 3600; // Chrome/Safari
	else
		delta = evt.detail / -90; // Mozilla

	var z = 1 + delta; // Zoom factor: 0.9/1.1

	var g = svgDoc.getElementById("viewport");

	var p = getEventPoint(evt);

	p = p.matrixTransform(g.getCTM().inverse());

	// Compute new scale matrix in current mouse position
	var k = root.createSVGMatrix().translate(p.x, p.y).scale(z).translate(-p.x, -p.y);

        setCTM(g, g.getCTM().multiply(k));

	stateTf = stateTf.multiply(k.inverse());
}

/**
 * Handle mouse move event.
 */
function handleMouseMove(evt) {
	if(evt.preventDefault)
		evt.preventDefault();

	evt.returnValue = false;

	var svgDoc = evt.target.ownerDocument;

	var g = svgDoc.getElementById("viewport");

	if(state == 'pan') {
		// Pan mode
		var p = getEventPoint(evt).matrixTransform(stateTf);

		setCTM(g, stateTf.inverse().translate(p.x - stateOrigin.x, p.y - stateOrigin.y));
	} else if(state == 'move') {
		// Move mode
		var p = getEventPoint(evt).matrixTransform(g.getCTM().inverse());

		setCTM(stateTarget, root.createSVGMatrix().translate(p.x - stateOrigin.x, p.y - stateOrigin.y).multiply(g.getCTM().inverse()).multiply(stateTarget.getCTM()));

		stateOrigin = p;
	}
}

/**
 * Handle click event.
 */
function handleMouseDown(evt) {
	if(evt.preventDefault)
		evt.preventDefault();

	evt.returnValue = false;

	var svgDoc = evt.target.ownerDocument;

	var g = svgDoc.getElementById("viewport");

	if(true || evt.target.tagName == "svg") {
		// Pan mode
		state = 'pan';

		stateTf = g.getCTM().inverse();

		stateOrigin = getEventPoint(evt).matrixTransform(stateTf);
	} else {
		// Move mode
		state = 'move';

		stateTarget = evt.target;

		stateTf = g.getCTM().inverse();

		stateOrigin = getEventPoint(evt).matrixTransform(stateTf);
	}
}

/**
 * Handle mouse button release event.
 */
function handleMouseUp(evt) {
	if(evt.preventDefault)
		evt.preventDefault();

	evt.returnValue = false;

	var svgDoc = evt.target.ownerDocument;

	if(state == 'pan' || state == 'move') {
		// Quit pan mode
		state = '';
	}
}

]]></script>
<g id="viewport" transform="translate(0,0)">
<g id="viewport" class="graph" transform="scale(1 1) rotate(0) translate(4 1547)">
<title>./bazel&#45;bin/demo1_main; 171 samples</title>
<polygon fill="white" stroke="none" points="-4,4 -4,-1547 1191.5,-1547 1191.5,4 -4,4"/>
<!-- Legend -->
<g id="node1" class="node"><title>Legend</title>
<text text-anchor="start" x="176.5" y="-1519.8" font-family="Times,serif" font-size="24.00">./bazel&#45;bin/demo1_main</text>
<text text-anchor="start" x="176.5" y="-1493.8" font-family="Times,serif" font-size="24.00">Total samples: 171</text>
<text text-anchor="start" x="176.5" y="-1467.8" font-family="Times,serif" font-size="24.00">Focusing on: 171</text>
<text text-anchor="start" x="176.5" y="-1441.8" font-family="Times,serif" font-size="24.00">Dropped nodes with &lt;= 0 abs(samples)</text>
<text text-anchor="start" x="176.5" y="-1415.8" font-family="Times,serif" font-size="24.00">Dropped edges with &lt;= 0 samples</text>
</g>
<!-- N1 -->
<g id="node2" class="node"><title>N1</title>
<polygon fill="none" stroke="black" points="649.5,-1354 575.5,-1354 575.5,-1319 649.5,-1319 649.5,-1354"/>
<text text-anchor="middle" x="612.5" y="-1343.6" font-family="Times,serif" font-size="8.00">__libc_start_main</text>
<text text-anchor="end" x="641.5" y="-1334.6" font-family="Times,serif" font-size="8.00">0 (0.0%)</text>
<text text-anchor="end" x="641.5" y="-1325.6" font-family="Times,serif" font-size="8.00">of 171 (100.0%)</text>
</g>
<!-- N3 -->
<g id="node4" class="node"><title>N3</title>
<polygon fill="none" stroke="black" points="647,-1268 578,-1268 578,-1233 647,-1233 647,-1268"/>
<text text-anchor="middle" x="612.5" y="-1257.6" font-family="Times,serif" font-size="8.00">main</text>
<text text-anchor="end" x="639" y="-1248.6" font-family="Times,serif" font-size="8.00">0 (0.0%)</text>
<text text-anchor="end" x="639" y="-1239.6" font-family="Times,serif" font-size="8.00">of 171 (100.0%)</text>
</g>
<!-- N1&#45;&gt;N3 -->
<g id="edge3" class="edge"><title>N1&#45;&gt;N3</title>
<path fill="none" stroke="black" stroke-width="2" d="M612.5,-1318.9C612.5,-1307.28 612.5,-1291.51 612.5,-1278.14"/>
<polygon fill="black" stroke="black" stroke-width="2" points="616,-1278.06 612.5,-1268.06 609,-1278.06 616,-1278.06"/>
<text text-anchor="middle" x="623" y="-1289.8" font-family="Times,serif" font-size="14.00">171</text>
</g>
<!-- N2 -->
<g id="node3" class="node"><title>N2</title>
<polygon fill="none" stroke="black" points="647,-1491.5 578,-1491.5 578,-1456.5 647,-1456.5 647,-1491.5"/>
<text text-anchor="middle" x="612.5" y="-1481.1" font-family="Times,serif" font-size="8.00">_start</text>
<text text-anchor="end" x="639" y="-1472.1" font-family="Times,serif" font-size="8.00">0 (0.0%)</text>
<text text-anchor="end" x="639" y="-1463.1" font-family="Times,serif" font-size="8.00">of 171 (100.0%)</text>
</g>
<!-- N2&#45;&gt;N1 -->
<g id="edge2" class="edge"><title>N2&#45;&gt;N1</title>
<path fill="none" stroke="black" stroke-width="2" d="M612.5,-1456.39C612.5,-1433.43 612.5,-1391.74 612.5,-1364.33"/>
<polygon fill="black" stroke="black" stroke-width="2" points="616,-1364.25 612.5,-1354.25 609,-1364.25 616,-1364.25"/>
<text text-anchor="middle" x="623" y="-1375.8" font-family="Times,serif" font-size="14.00">171</text>
</g>
<!-- N6 -->
<g id="node7" class="node"><title>N6</title>
<polygon fill="none" stroke="black" points="647,-1182 578,-1182 578,-1138 647,-1138 647,-1182"/>
<text text-anchor="middle" x="612.5" y="-1171.6" font-family="Times,serif" font-size="8.00">mps</text>
<text text-anchor="middle" x="612.5" y="-1162.6" font-family="Times,serif" font-size="8.00">Run</text>
<text text-anchor="end" x="639" y="-1153.6" font-family="Times,serif" font-size="8.00">0 (0.0%)</text>
<text text-anchor="end" x="639" y="-1144.6" font-family="Times,serif" font-size="8.00">of 171 (100.0%)</text>
</g>
<!-- N3&#45;&gt;N6 -->
<g id="edge5" class="edge"><title>N3&#45;&gt;N6</title>
<path fill="none" stroke="black" stroke-width="2" d="M612.5,-1232.85C612.5,-1221.44 612.5,-1205.95 612.5,-1192.28"/>
<polygon fill="black" stroke="black" stroke-width="2" points="616,-1192.27 612.5,-1182.27 609,-1192.27 616,-1192.27"/>
<text text-anchor="middle" x="623" y="-1203.8" font-family="Times,serif" font-size="14.00">171</text>
</g>
<!-- N4 -->
<g id="node5" class="node"><title>N4</title>
<polygon fill="none" stroke="black" points="647,-1087 578,-1087 578,-1034 647,-1034 647,-1087"/>
<text text-anchor="middle" x="612.5" y="-1076.6" font-family="Times,serif" font-size="8.00">mps</text>
<text text-anchor="middle" x="612.5" y="-1067.6" font-family="Times,serif" font-size="8.00">Demo1</text>
<text text-anchor="middle" x="612.5" y="-1058.6" font-family="Times,serif" font-size="8.00">Run</text>
<text text-anchor="end" x="639" y="-1049.6" font-family="Times,serif" font-size="8.00">0 (0.0%)</text>
<text text-anchor="end" x="639" y="-1040.6" font-family="Times,serif" font-size="8.00">of 171 (100.0%)</text>
</g>
<!-- N5 -->
<g id="node6" class="node"><title>N5</title>
<polygon fill="none" stroke="black" points="647,-983 578,-983 578,-939 647,-939 647,-983"/>
<text text-anchor="middle" x="612.5" y="-972.6" font-family="Times,serif" font-size="8.00">mps</text>
<text text-anchor="middle" x="612.5" y="-963.6" font-family="Times,serif" font-size="8.00">Iterate</text>
<text text-anchor="end" x="639" y="-954.6" font-family="Times,serif" font-size="8.00">0 (0.0%)</text>
<text text-anchor="end" x="639" y="-945.6" font-family="Times,serif" font-size="8.00">of 171 (100.0%)</text>
</g>
<!-- N4&#45;&gt;N5 -->
<g id="edge4" class="edge"><title>N4&#45;&gt;N5</title>
<path fill="none" stroke="black" stroke-width="2" d="M612.5,-1033.88C612.5,-1021.42 612.5,-1006.32 612.5,-993.194"/>
<polygon fill="black" stroke="black" stroke-width="2" points="616,-993.171 612.5,-983.171 609,-993.171 616,-993.171"/>
<text text-anchor="middle" x="623" y="-1004.8" font-family="Times,serif" font-size="14.00">171</text>
</g>
<!-- N7 -->
<g id="node8" class="node"><title>N7</title>
<polygon fill="none" stroke="black" points="713,-888 512,-888 512,-710 713,-710 713,-888"/>
<text text-anchor="middle" x="612.5" y="-859.52" font-family="Times,serif" font-size="30.60">mps</text>
<text text-anchor="middle" x="612.5" y="-825.52" font-family="Times,serif" font-size="30.60">BinInTimeV2</text>
<text text-anchor="middle" x="612.5" y="-791.52" font-family="Times,serif" font-size="30.60">Run</text>
<text text-anchor="end" x="705" y="-757.52" font-family="Times,serif" font-size="30.60">35 (20.5%)</text>
<text text-anchor="end" x="705" y="-723.52" font-family="Times,serif" font-size="30.60">of 156 (91.2%)</text>
</g>
<!-- N5&#45;&gt;N7 -->
<g id="edge6" class="edge"><title>N5&#45;&gt;N7</title>
<path fill="none" stroke="black" stroke-width="2" d="M612.5,-938.753C612.5,-927.736 612.5,-913.405 612.5,-898.144"/>
<polygon fill="black" stroke="black" stroke-width="2" points="616,-898.006 612.5,-888.006 609,-898.006 616,-898.006"/>
<text text-anchor="middle" x="623" y="-909.8" font-family="Times,serif" font-size="14.00">156</text>
</g>
<!-- N12 -->
<g id="node13" class="node"><title>N12</title>
<polygon fill="none" stroke="black" points="830,-845.5 731,-845.5 731,-752.5 830,-752.5 830,-845.5"/>
<text text-anchor="middle" x="780.5" y="-829.02" font-family="Times,serif" font-size="15.60">mps</text>
<text text-anchor="middle" x="780.5" y="-812.02" font-family="Times,serif" font-size="15.60">BinInFreqV1</text>
<text text-anchor="middle" x="780.5" y="-795.02" font-family="Times,serif" font-size="15.60">Run</text>
<text text-anchor="end" x="822" y="-778.02" font-family="Times,serif" font-size="15.60">4 (2.3%)</text>
<text text-anchor="end" x="822" y="-761.02" font-family="Times,serif" font-size="15.60">of 8 (4.7%)</text>
</g>
<!-- N5&#45;&gt;N12 -->
<g id="edge10" class="edge"><title>N5&#45;&gt;N12</title>
<path fill="none" stroke="black" d="M647.101,-942.243C670.189,-929.283 700.273,-910.156 722.5,-888 732.511,-878.021 741.761,-866.051 749.799,-854.201"/>
<polygon fill="black" stroke="black" points="752.868,-855.904 755.43,-845.624 747.016,-852.062 752.868,-855.904"/>
<text text-anchor="middle" x="704" y="-909.8" font-family="Times,serif" font-size="14.00">8</text>
</g>
<!-- N15 -->
<g id="node16" class="node"><title>N15</title>
<polygon fill="none" stroke="black" points="936,-829 865,-829 865,-769 936,-769 936,-829"/>
<text text-anchor="middle" x="900.5" y="-815.56" font-family="Times,serif" font-size="11.80">mps</text>
<text text-anchor="middle" x="900.5" y="-802.56" font-family="Times,serif" font-size="11.80">MatPencil</text>
<text text-anchor="end" x="928" y="-789.56" font-family="Times,serif" font-size="11.80">1 (0.6%)</text>
<text text-anchor="end" x="928" y="-776.56" font-family="Times,serif" font-size="11.80">of 4 (2.3%)</text>
</g>
<!-- N5&#45;&gt;N15 -->
<g id="edge14" class="edge"><title>N5&#45;&gt;N15</title>
<path fill="none" stroke="black" d="M647.19,-956.079C694.647,-949.243 780.624,-931.462 839.5,-888 857.075,-875.026 871.369,-855.42 881.69,-838.004"/>
<polygon fill="black" stroke="black" points="884.828,-839.567 886.722,-829.143 878.741,-836.111 884.828,-839.567"/>
<text text-anchor="middle" x="810" y="-909.8" font-family="Times,serif" font-size="14.00">4</text>
</g>
<!-- N24 -->
<g id="node25" class="node"><title>N24</title>
<polygon fill="none" stroke="black" points="1019.5,-825.5 965.5,-825.5 965.5,-772.5 1019.5,-772.5 1019.5,-825.5"/>
<text text-anchor="middle" x="992.5" y="-815.1" font-family="Times,serif" font-size="8.00">mps</text>
<text text-anchor="middle" x="992.5" y="-806.1" font-family="Times,serif" font-size="8.00">Window</text>
<text text-anchor="middle" x="992.5" y="-797.1" font-family="Times,serif" font-size="8.00">Window</text>
<text text-anchor="end" x="1011.5" y="-788.1" font-family="Times,serif" font-size="8.00">0 (0.0%)</text>
<text text-anchor="end" x="1011.5" y="-779.1" font-family="Times,serif" font-size="8.00">of 2 (1.2%)</text>
</g>
<!-- N5&#45;&gt;N24 -->
<g id="edge22" class="edge"><title>N5&#45;&gt;N24</title>
<path fill="none" stroke="black" d="M647.224,-956.356C722.795,-947.822 899.118,-924.466 945.5,-888 962.466,-874.661 974.051,-853.458 981.474,-835.208"/>
<polygon fill="black" stroke="black" points="984.8,-836.308 985.08,-825.716 978.256,-833.822 984.8,-836.308"/>
<text text-anchor="middle" x="912" y="-909.8" font-family="Times,serif" font-size="14.00">2</text>
</g>
<!-- N29 -->
<g id="node30" class="node"><title>N29</title>
<polygon fill="none" stroke="black" points="1119.5,-830 1065.5,-830 1065.5,-768 1119.5,-768 1119.5,-830"/>
<text text-anchor="middle" x="1092.5" y="-819.6" font-family="Times,serif" font-size="8.00">std</text>
<text text-anchor="middle" x="1092.5" y="-810.6" font-family="Times,serif" font-size="8.00">__detail</text>
<text text-anchor="middle" x="1092.5" y="-801.6" font-family="Times,serif" font-size="8.00">_Map_base</text>
<text text-anchor="middle" x="1092.5" y="-792.6" font-family="Times,serif" font-size="8.00">operator[]</text>
<text text-anchor="end" x="1111.5" y="-783.6" font-family="Times,serif" font-size="8.00">0 (0.0%)</text>
<text text-anchor="end" x="1111.5" y="-774.6" font-family="Times,serif" font-size="8.00">of 1 (0.6%)</text>
</g>
<!-- N5&#45;&gt;N29 -->
<g id="edge25" class="edge"><title>N5&#45;&gt;N29</title>
<path fill="none" stroke="black" d="M647.189,-957.817C735.658,-951.66 967.043,-931.688 1028.5,-888 1046.33,-875.324 1061.13,-856.107 1071.99,-838.861"/>
<polygon fill="black" stroke="black" points="1075.12,-840.437 1077.3,-830.068 1069.13,-836.816 1075.12,-840.437"/>
<text text-anchor="middle" x="994" y="-909.8" font-family="Times,serif" font-size="14.00">1</text>
</g>
<!-- N6&#45;&gt;N4 -->
<g id="edge1" class="edge"><title>N6&#45;&gt;N4</title>
<path fill="none" stroke="black" stroke-width="2" d="M612.5,-1137.84C612.5,-1125.97 612.5,-1110.85 612.5,-1097.19"/>
<polygon fill="black" stroke="black" stroke-width="2" points="616,-1097.12 612.5,-1087.12 609,-1097.12 616,-1097.12"/>
<text text-anchor="middle" x="623" y="-1108.8" font-family="Times,serif" font-size="14.00">171</text>
</g>
<!-- N8 -->
<g id="node9" class="node"><title>N8</title>
<polygon fill="none" stroke="black" points="778.5,-659 446.5,-659 446.5,-495 778.5,-495 778.5,-659"/>
<text text-anchor="middle" x="612.5" y="-626.52" font-family="Times,serif" font-size="35.60">mps</text>
<text text-anchor="middle" x="612.5" y="-587.52" font-family="Times,serif" font-size="35.60">BinInTimeV2Helper2</text>
<text text-anchor="end" x="770.5" y="-548.52" font-family="Times,serif" font-size="35.60">52 (30.4%)</text>
<text text-anchor="end" x="770.5" y="-509.52" font-family="Times,serif" font-size="35.60">of 58 (33.9%)</text>
</g>
<!-- N7&#45;&gt;N8 -->
<g id="edge7" class="edge"><title>N7&#45;&gt;N8</title>
<path fill="none" stroke="black" stroke-width="2" d="M612.5,-709.785C612.5,-696.449 612.5,-682.667 612.5,-669.268"/>
<polygon fill="black" stroke="black" stroke-width="2" points="616,-669.109 612.5,-659.109 609,-669.109 616,-669.109"/>
<text text-anchor="middle" x="619.5" y="-680.8" font-family="Times,serif" font-size="14.00">58</text>
</g>
<!-- N9 -->
<g id="node10" class="node"><title>N9</title>
<polygon fill="none" stroke="black" points="428.5,-631 216.5,-631 216.5,-523 428.5,-523 428.5,-631"/>
<text text-anchor="middle" x="322.5" y="-609.16" font-family="Times,serif" font-size="22.30">mps</text>
<text text-anchor="middle" x="322.5" y="-584.16" font-family="Times,serif" font-size="22.30">BinInTimeV2Helper3</text>
<text text-anchor="end" x="420.5" y="-559.16" font-family="Times,serif" font-size="22.30">14 (8.2%)</text>
<text text-anchor="end" x="420.5" y="-534.16" font-family="Times,serif" font-size="22.30">of 53 (31.0%)</text>
</g>
<!-- N7&#45;&gt;N9 -->
<g id="edge8" class="edge"><title>N7&#45;&gt;N9</title>
<path fill="none" stroke="black" stroke-width="1.85965" d="M511.886,-721.672C475.386,-693.983 434.734,-663.143 400.48,-637.157"/>
<polygon fill="black" stroke="black" stroke-width="1.85965" points="402.453,-634.26 392.37,-631.005 398.222,-639.837 402.453,-634.26"/>
<text text-anchor="middle" x="474.5" y="-680.8" font-family="Times,serif" font-size="14.00">53</text>
</g>
<!-- N10 -->
<g id="node11" class="node"><title>N10</title>
<polygon fill="none" stroke="black" points="634.5,-442 468.5,-442 468.5,-360 634.5,-360 634.5,-442"/>
<text text-anchor="middle" x="551.5" y="-411.28" font-family="Times,serif" font-size="33.40">sincos</text>
<text text-anchor="end" x="626.5" y="-374.28" font-family="Times,serif" font-size="33.40">44 (25.7%)</text>
</g>
<!-- N7&#45;&gt;N10 -->
<g id="edge11" class="edge"><title>N7&#45;&gt;N10</title>
<path fill="none" stroke="black" d="M713.178,-717.395C716.32,-714.9 719.433,-712.43 722.5,-710 751.281,-687.197 771.437,-692.02 787.5,-659 819.385,-593.455 828.518,-555.252 787.5,-495 778.66,-482.015 706.369,-454.617 644.098,-432.904"/>
<polygon fill="black" stroke="black" points="645.192,-429.579 634.598,-429.608 642.898,-436.193 645.192,-429.579"/>
<text text-anchor="middle" x="818" y="-573.3" font-family="Times,serif" font-size="14.00">6</text>
</g>
<!-- N14 -->
<g id="node15" class="node"><title>N14</title>
<polygon fill="none" stroke="black" points="180.5,-594.5 126.5,-594.5 126.5,-559.5 180.5,-559.5 180.5,-594.5"/>
<text text-anchor="middle" x="153.5" y="-584.1" font-family="Times,serif" font-size="8.00">apply_dit</text>
<text text-anchor="end" x="172.5" y="-575.1" font-family="Times,serif" font-size="8.00">0 (0.0%)</text>
<text text-anchor="end" x="172.5" y="-566.1" font-family="Times,serif" font-size="8.00">of 4 (2.3%)</text>
</g>
<!-- N7&#45;&gt;N14 -->
<g id="edge13" class="edge"><title>N7&#45;&gt;N14</title>
<path fill="none" stroke="black" d="M511.889,-782.237C424.235,-764.408 297.434,-728.324 207.5,-659 188.752,-644.548 174.354,-621.663 165.159,-603.9"/>
<polygon fill="black" stroke="black" points="168.155,-602.062 160.591,-594.644 161.878,-605.16 168.155,-602.062"/>
<text text-anchor="middle" x="259" y="-680.8" font-family="Times,serif" font-size="14.00">4</text>
</g>
<!-- N11 -->
<g id="node12" class="node"><title>N11</title>
<polygon fill="none" stroke="black" points="490.5,-307 396.5,-307 396.5,-257 490.5,-257 490.5,-307"/>
<text text-anchor="middle" x="443.5" y="-287.96" font-family="Times,serif" font-size="18.80">__muldc3</text>
<text text-anchor="end" x="482.5" y="-266.96" font-family="Times,serif" font-size="18.80">8 (4.7%)</text>
</g>
<!-- N8&#45;&gt;N11 -->
<g id="edge12" class="edge"><title>N8&#45;&gt;N11</title>
<path fill="none" stroke="black" d="M490.34,-494.702C475.299,-479.604 461.93,-462.636 452.5,-444 432.283,-404.045 433.817,-351.165 437.813,-317.11"/>
<polygon fill="black" stroke="black" points="441.285,-317.55 439.111,-307.181 434.344,-316.643 441.285,-317.55"/>
<text text-anchor="middle" x="456" y="-397.3" font-family="Times,serif" font-size="14.00">6</text>
</g>
<!-- N9&#45;&gt;N10 -->
<g id="edge9" class="edge"><title>N9&#45;&gt;N10</title>
<path fill="none" stroke="black" stroke-width="1.19298" d="M392.452,-522.849C423.711,-499.097 460.219,-471.357 490.368,-448.45"/>
<polygon fill="black" stroke="black" stroke-width="1.19298" points="492.848,-450.961 498.693,-442.124 488.613,-445.387 492.848,-450.961"/>
<text text-anchor="middle" x="477.5" y="-465.8" font-family="Times,serif" font-size="14.00">34</text>
</g>
<!-- N9&#45;&gt;N11 -->
<g id="edge37" class="edge"><title>N9&#45;&gt;N11</title>
<path fill="none" stroke="black" d="M344.412,-522.94C369.185,-462.953 408.771,-367.095 429.619,-316.612"/>
<polygon fill="black" stroke="black" points="432.947,-317.724 433.529,-307.145 426.477,-315.052 432.947,-317.724"/>
<text text-anchor="middle" x="415" y="-397.3" font-family="Times,serif" font-size="14.00">1</text>
</g>
<!-- N18 -->
<g id="node19" class="node"><title>N18</title>
<polygon fill="none" stroke="black" points="272.5,-420 178.5,-420 178.5,-382 272.5,-382 272.5,-420"/>
<text text-anchor="middle" x="225.5" y="-405.28" font-family="Times,serif" font-size="13.40">__fmod_finite</text>
<text text-anchor="end" x="264.5" y="-390.28" font-family="Times,serif" font-size="13.40">2 (1.2%)</text>
</g>
<!-- N9&#45;&gt;N18 -->
<g id="edge19" class="edge"><title>N9&#45;&gt;N18</title>
<path fill="none" stroke="black" d="M292.87,-522.849C275.579,-491.832 254.496,-454.014 240.572,-429.037"/>
<polygon fill="black" stroke="black" points="243.535,-427.164 235.609,-420.134 237.421,-430.572 243.535,-427.164"/>
<text text-anchor="middle" x="269" y="-465.8" font-family="Times,serif" font-size="14.00">2</text>
</g>
<!-- N21 -->
<g id="node22" class="node"><title>N21</title>
<polygon fill="none" stroke="black" points="354,-420 291,-420 291,-382 354,-382 354,-420"/>
<text text-anchor="middle" x="322.5" y="-405.28" font-family="Times,serif" font-size="13.40">fmod</text>
<text text-anchor="end" x="346" y="-390.28" font-family="Times,serif" font-size="13.40">2 (1.2%)</text>
</g>
<!-- N9&#45;&gt;N21 -->
<g id="edge21" class="edge"><title>N9&#45;&gt;N21</title>
<path fill="none" stroke="black" d="M322.5,-522.849C322.5,-492.378 322.5,-455.345 322.5,-430.369"/>
<polygon fill="black" stroke="black" points="326,-430.134 322.5,-420.134 319,-430.134 326,-430.134"/>
<text text-anchor="middle" x="326" y="-465.8" font-family="Times,serif" font-size="14.00">2</text>
</g>
<!-- N12&#45;&gt;N10 -->
<g id="edge15" class="edge"><title>N12&#45;&gt;N10</title>
<path fill="none" stroke="black" d="M804.859,-752.489C834.869,-689.557 876.052,-574.72 825.5,-495 807.081,-465.953 787.769,-473.903 755.5,-462 726.974,-451.478 718.713,-452.427 689.5,-444 674.893,-439.786 659.455,-435.21 644.4,-430.679"/>
<polygon fill="black" stroke="black" points="645.159,-427.252 634.574,-427.712 643.136,-433.953 645.159,-427.252"/>
<text text-anchor="middle" x="852" y="-573.3" font-family="Times,serif" font-size="14.00">4</text>
</g>
<!-- N13 -->
<g id="node14" class="node"><title>N13</title>
<polygon fill="none" stroke="black" points="183,-299.5 124,-299.5 124,-264.5 183,-264.5 183,-299.5"/>
<text text-anchor="middle" x="153.5" y="-289.1" font-family="Times,serif" font-size="8.00">apply@20f00</text>
<text text-anchor="end" x="175" y="-280.1" font-family="Times,serif" font-size="8.00">0 (0.0%)</text>
<text text-anchor="end" x="175" y="-271.1" font-family="Times,serif" font-size="8.00">of 4 (2.3%)</text>
</g>
<!-- N19 -->
<g id="node20" class="node"><title>N19</title>
<polygon fill="none" stroke="black" points="59,-206 0,-206 0,-171 59,-171 59,-206"/>
<text text-anchor="middle" x="29.5" y="-195.6" font-family="Times,serif" font-size="8.00">apply@1b6f0</text>
<text text-anchor="end" x="51" y="-186.6" font-family="Times,serif" font-size="8.00">0 (0.0%)</text>
<text text-anchor="end" x="51" y="-177.6" font-family="Times,serif" font-size="8.00">of 2 (1.2%)</text>
</g>
<!-- N13&#45;&gt;N19 -->
<g id="edge20" class="edge"><title>N13&#45;&gt;N19</title>
<path fill="none" stroke="black" d="M131.045,-264.43C111.328,-249.881 82.4554,-228.576 60.5327,-212.399"/>
<polygon fill="black" stroke="black" points="62.3321,-209.377 52.2074,-206.256 58.1758,-215.01 62.3321,-209.377"/>
<text text-anchor="middle" x="99" y="-227.8" font-family="Times,serif" font-size="14.00">2</text>
</g>
<!-- N20 -->
<g id="node21" class="node"><title>N20</title>
<polygon fill="none" stroke="black" points="253.5,-120 193.5,-120 193.5,-85 253.5,-85 253.5,-120"/>
<text text-anchor="middle" x="223.5" y="-109.6" font-family="Times,serif" font-size="8.00">apply@1cad0</text>
<text text-anchor="end" x="245.5" y="-100.6" font-family="Times,serif" font-size="8.00">0 (0.0%)</text>
<text text-anchor="end" x="245.5" y="-91.6" font-family="Times,serif" font-size="8.00">of 2 (1.2%)</text>
</g>
<!-- N13&#45;&gt;N20 -->
<g id="edge34" class="edge"><title>N13&#45;&gt;N20</title>
<path fill="none" stroke="black" d="M183.019,-270.927C210.475,-259.795 249.737,-238.948 267.5,-206 281.373,-180.267 263.584,-149.24 246.651,-128.111"/>
<polygon fill="black" stroke="black" points="249.15,-125.646 240.028,-120.256 243.798,-130.157 249.15,-125.646"/>
<text text-anchor="middle" x="276" y="-184.8" font-family="Times,serif" font-size="14.00">1</text>
</g>
<!-- N26 -->
<g id="node27" class="node"><title>N26</title>
<polygon fill="none" stroke="black" points="159.5,-205.5 77.5,-205.5 77.5,-171.5 159.5,-171.5 159.5,-205.5"/>
<text text-anchor="middle" x="118.5" y="-192.06" font-family="Times,serif" font-size="11.80">apply@1ee10</text>
<text text-anchor="end" x="151.5" y="-179.06" font-family="Times,serif" font-size="11.80">1 (0.6%)</text>
</g>
<!-- N13&#45;&gt;N26 -->
<g id="edge28" class="edge"><title>N13&#45;&gt;N26</title>
<path fill="none" stroke="black" d="M147.08,-264.217C141.835,-250.505 134.334,-230.895 128.333,-215.205"/>
<polygon fill="black" stroke="black" points="131.486,-213.652 124.644,-205.562 124.948,-216.153 131.486,-213.652"/>
<text text-anchor="middle" x="141" y="-227.8" font-family="Times,serif" font-size="14.00">1</text>
</g>
<!-- N27 -->
<g id="node28" class="node"><title>N27</title>
<polygon fill="none" stroke="black" points="259,-205.5 178,-205.5 178,-171.5 259,-171.5 259,-205.5"/>
<text text-anchor="middle" x="218.5" y="-192.06" font-family="Times,serif" font-size="11.80">apply@201f0</text>
<text text-anchor="end" x="251" y="-179.06" font-family="Times,serif" font-size="11.80">1 (0.6%)</text>
</g>
<!-- N13&#45;&gt;N27 -->
<g id="edge29" class="edge"><title>N13&#45;&gt;N27</title>
<path fill="none" stroke="black" d="M165.422,-264.217C175.441,-250.113 189.893,-229.77 201.188,-213.87"/>
<polygon fill="black" stroke="black" points="204.152,-215.742 207.09,-205.562 198.445,-211.688 204.152,-215.742"/>
<text text-anchor="middle" x="198" y="-227.8" font-family="Times,serif" font-size="14.00">1</text>
</g>
<!-- N14&#45;&gt;N13 -->
<g id="edge16" class="edge"><title>N14&#45;&gt;N13</title>
<path fill="none" stroke="black" d="M153.5,-559.408C153.5,-510.972 153.5,-369.447 153.5,-309.898"/>
<polygon fill="black" stroke="black" points="157,-309.774 153.5,-299.774 150,-309.774 157,-309.774"/>
<text text-anchor="middle" x="157" y="-397.3" font-family="Times,serif" font-size="14.00">4</text>
</g>
<!-- N25 -->
<g id="node26" class="node"><title>N25</title>
<polygon fill="none" stroke="black" points="117.5,-418.5 57.5,-418.5 57.5,-383.5 117.5,-383.5 117.5,-418.5"/>
<text text-anchor="middle" x="87.5" y="-408.1" font-family="Times,serif" font-size="8.00">apply@1be20</text>
<text text-anchor="end" x="109.5" y="-399.1" font-family="Times,serif" font-size="8.00">0 (0.0%)</text>
<text text-anchor="end" x="109.5" y="-390.1" font-family="Times,serif" font-size="8.00">of 1 (0.6%)</text>
</g>
<!-- N14&#45;&gt;N25 -->
<g id="edge32" class="edge"><title>N14&#45;&gt;N25</title>
<path fill="none" stroke="black" d="M147.172,-559.316C135.64,-528.916 111.132,-464.302 97.3823,-428.053"/>
<polygon fill="black" stroke="black" points="100.628,-426.742 93.8092,-418.633 94.0833,-429.225 100.628,-426.742"/>
<text text-anchor="middle" x="119" y="-465.8" font-family="Times,serif" font-size="14.00">1</text>
</g>
<!-- N16 -->
<g id="node17" class="node"><title>N16</title>
<polygon fill="none" stroke="black" points="954,-613.5 883,-613.5 883,-540.5 954,-540.5 954,-613.5"/>
<text text-anchor="middle" x="918.5" y="-600.06" font-family="Times,serif" font-size="11.80">Eigen</text>
<text text-anchor="middle" x="918.5" y="-587.06" font-family="Times,serif" font-size="11.80">JacobiSVD</text>
<text text-anchor="middle" x="918.5" y="-574.06" font-family="Times,serif" font-size="11.80">compute</text>
<text text-anchor="end" x="946" y="-561.06" font-family="Times,serif" font-size="11.80">1 (0.6%)</text>
<text text-anchor="end" x="946" y="-548.06" font-family="Times,serif" font-size="11.80">of 3 (1.8%)</text>
</g>
<!-- N15&#45;&gt;N16 -->
<g id="edge17" class="edge"><title>N15&#45;&gt;N16</title>
<path fill="none" stroke="black" d="M902.89,-768.786C905.927,-731.67 911.201,-667.207 914.769,-623.595"/>
<polygon fill="black" stroke="black" points="918.266,-623.785 915.593,-613.533 911.289,-623.214 918.266,-623.785"/>
<text text-anchor="middle" x="913" y="-680.8" font-family="Times,serif" font-size="14.00">3</text>
</g>
<!-- N17 -->
<g id="node18" class="node"><title>N17</title>
<polygon fill="none" stroke="black" points="908.5,-444 698.5,-444 698.5,-358 908.5,-358 908.5,-444"/>
<text text-anchor="middle" x="803.5" y="-430.56" font-family="Times,serif" font-size="11.80">Eigen</text>
<text text-anchor="middle" x="803.5" y="-417.56" font-family="Times,serif" font-size="11.80">internal</text>
<text text-anchor="middle" x="803.5" y="-404.56" font-family="Times,serif" font-size="11.80">svd_precondition_2x2_block_to_be_real</text>
<text text-anchor="middle" x="803.5" y="-391.56" font-family="Times,serif" font-size="11.80">run</text>
<text text-anchor="end" x="900.5" y="-378.56" font-family="Times,serif" font-size="11.80">1 (0.6%)</text>
<text text-anchor="end" x="900.5" y="-365.56" font-family="Times,serif" font-size="11.80">of 2 (1.2%)</text>
</g>
<!-- N16&#45;&gt;N17 -->
<g id="edge18" class="edge"><title>N16&#45;&gt;N17</title>
<path fill="none" stroke="black" d="M908.512,-540.481C900.791,-516.849 888.527,-485.88 871.5,-462 869.032,-458.539 866.328,-455.14 863.466,-451.83"/>
<polygon fill="black" stroke="black" points="865.875,-449.279 856.535,-444.277 860.717,-454.011 865.875,-449.279"/>
<text text-anchor="middle" x="884" y="-465.8" font-family="Times,serif" font-size="14.00">2</text>
</g>
<!-- N17&#45;&gt;N11 -->
<g id="edge36" class="edge"><title>N17&#45;&gt;N11</title>
<path fill="none" stroke="black" d="M698.405,-365.844C633.736,-344.827 553.366,-318.706 500.36,-301.479"/>
<polygon fill="black" stroke="black" points="501.383,-298.132 490.791,-298.369 499.219,-304.789 501.383,-298.132"/>
<text text-anchor="middle" x="616" y="-328.8" font-family="Times,serif" font-size="14.00">1</text>
</g>
<!-- N19&#45;&gt;N14 -->
<g id="edge27" class="edge"><title>N19&#45;&gt;N14</title>
<path fill="none" stroke="black" d="M27.4862,-206.012C23.0827,-247.651 15.4612,-359.631 48.5,-444 65.5306,-487.49 102.099,-528.028 127.248,-552.411"/>
<polygon fill="black" stroke="black" points="124.992,-555.094 134.653,-559.444 129.813,-550.019 124.992,-555.094"/>
<text text-anchor="middle" x="30" y="-328.8" font-family="Times,serif" font-size="14.00">1</text>
</g>
<!-- N19&#45;&gt;N20 -->
<g id="edge33" class="edge"><title>N19&#45;&gt;N20</title>
<path fill="none" stroke="black" d="M59.3873,-174.559C92.7554,-160.111 146.906,-136.664 183.807,-120.687"/>
<polygon fill="black" stroke="black" points="185.473,-123.779 193.259,-116.594 182.692,-117.356 185.473,-123.779"/>
<text text-anchor="middle" x="142" y="-141.8" font-family="Times,serif" font-size="14.00">1</text>
</g>
<!-- N30 -->
<g id="node31" class="node"><title>N30</title>
<polygon fill="none" stroke="black" points="214.5,-34 156.5,-34 156.5,-0 214.5,-0 214.5,-34"/>
<text text-anchor="middle" x="185.5" y="-20.56" font-family="Times,serif" font-size="11.80">t2_25</text>
<text text-anchor="end" x="206.5" y="-7.56" font-family="Times,serif" font-size="11.80">1 (0.6%)</text>
</g>
<!-- N20&#45;&gt;N30 -->
<g id="edge35" class="edge"><title>N20&#45;&gt;N30</title>
<path fill="none" stroke="black" d="M215.81,-84.6025C210.4,-72.715 203.067,-56.6012 196.969,-43.201"/>
<polygon fill="black" stroke="black" points="200.119,-41.6745 192.792,-34.0224 193.748,-44.574 200.119,-41.6745"/>
<text text-anchor="middle" x="211" y="-55.8" font-family="Times,serif" font-size="14.00">1</text>
</g>
<!-- N31 -->
<g id="node32" class="node"><title>N31</title>
<polygon fill="none" stroke="black" points="290.5,-34 232.5,-34 232.5,-0 290.5,-0 290.5,-34"/>
<text text-anchor="middle" x="261.5" y="-20.56" font-family="Times,serif" font-size="11.80">t2_5</text>
<text text-anchor="end" x="282.5" y="-7.56" font-family="Times,serif" font-size="11.80">1 (0.6%)</text>
</g>
<!-- N20&#45;&gt;N31 -->
<g id="edge31" class="edge"><title>N20&#45;&gt;N31</title>
<path fill="none" stroke="black" d="M231.19,-84.6025C236.6,-72.715 243.933,-56.6012 250.031,-43.201"/>
<polygon fill="black" stroke="black" points="253.252,-44.574 254.208,-34.0224 246.881,-41.6745 253.252,-44.574"/>
<text text-anchor="middle" x="250" y="-55.8" font-family="Times,serif" font-size="14.00">1</text>
</g>
<!-- N22 -->
<g id="node23" class="node"><title>N22</title>
<polygon fill="none" stroke="black" points="1036,-420 973,-420 973,-382 1036,-382 1036,-420"/>
<text text-anchor="middle" x="1004.5" y="-405.28" font-family="Times,serif" font-size="13.40">gammal</text>
<text text-anchor="end" x="1028" y="-390.28" font-family="Times,serif" font-size="13.40">2 (1.2%)</text>
</g>
<!-- N23 -->
<g id="node24" class="node"><title>N23</title>
<polygon fill="none" stroke="black" points="1037,-603.5 972,-603.5 972,-550.5 1037,-550.5 1037,-603.5"/>
<text text-anchor="middle" x="1004.5" y="-593.1" font-family="Times,serif" font-size="8.00">mps</text>
<text text-anchor="middle" x="1004.5" y="-584.1" font-family="Times,serif" font-size="8.00">Window</text>
<text text-anchor="middle" x="1004.5" y="-575.1" font-family="Times,serif" font-size="8.00">SampleInTime</text>
<text text-anchor="end" x="1029" y="-566.1" font-family="Times,serif" font-size="8.00">0 (0.0%)</text>
<text text-anchor="end" x="1029" y="-557.1" font-family="Times,serif" font-size="8.00">of 2 (1.2%)</text>
</g>
<!-- N23&#45;&gt;N22 -->
<g id="edge24" class="edge"><title>N23&#45;&gt;N22</title>
<path fill="none" stroke="black" d="M1004.5,-550.326C1004.5,-518.391 1004.5,-464.027 1004.5,-430.733"/>
<polygon fill="black" stroke="black" points="1008,-430.313 1004.5,-420.313 1001,-430.313 1008,-430.313"/>
<text text-anchor="middle" x="1008" y="-465.8" font-family="Times,serif" font-size="14.00">2</text>
</g>
<!-- N24&#45;&gt;N23 -->
<g id="edge23" class="edge"><title>N24&#45;&gt;N23</title>
<path fill="none" stroke="black" d="M993.9,-772.333C996.041,-733.087 1000.13,-658.049 1002.56,-613.576"/>
<polygon fill="black" stroke="black" points="1006.06,-613.68 1003.11,-603.504 999.069,-613.298 1006.06,-613.68"/>
<text text-anchor="middle" x="1002" y="-680.8" font-family="Times,serif" font-size="14.00">2</text>
</g>
<!-- N25&#45;&gt;N13 -->
<g id="edge26" class="edge"><title>N25&#45;&gt;N13</title>
<path fill="none" stroke="black" d="M96.8162,-383.485C107.809,-363.997 126.213,-331.372 139.059,-308.601"/>
<polygon fill="black" stroke="black" points="142.153,-310.239 144.017,-299.81 136.056,-306.8 142.153,-310.239"/>
<text text-anchor="middle" x="132" y="-328.8" font-family="Times,serif" font-size="14.00">1</text>
</g>
<!-- N28 -->
<g id="node29" class="node"><title>N28</title>
<polygon fill="none" stroke="black" points="1187.5,-607 1055.5,-607 1055.5,-547 1187.5,-547 1187.5,-607"/>
<text text-anchor="middle" x="1121.5" y="-593.56" font-family="Times,serif" font-size="11.80">std</text>
<text text-anchor="middle" x="1121.5" y="-580.56" font-family="Times,serif" font-size="11.80">_Hashtable</text>
<text text-anchor="middle" x="1121.5" y="-567.56" font-family="Times,serif" font-size="11.80">_M_insert_unique_node</text>
<text text-anchor="end" x="1179.5" y="-554.56" font-family="Times,serif" font-size="11.80">1 (0.6%)</text>
</g>
<!-- N29&#45;&gt;N28 -->
<g id="edge30" class="edge"><title>N29&#45;&gt;N28</title>
<path fill="none" stroke="black" d="M1096.47,-767.871C1101.63,-728.733 1110.65,-660.327 1116.33,-617.19"/>
<polygon fill="black" stroke="black" points="1119.83,-617.437 1117.67,-607.065 1112.89,-616.522 1119.83,-617.437"/>
<text text-anchor="middle" x="1111" y="-680.8" font-family="Times,serif" font-size="14.00">1</text>
</g>
</g>
</g></svg>
