<?xml version="1.0" encoding="UTF-8" standalone="no"?>
<!DOCTYPE svg PUBLIC "-//W3C//DTD SVG 1.1//EN"
 "http://www.w3.org/Graphics/SVG/1.1/DTD/svg11.dtd">
<!-- Generated by graphviz version 2.38.0 (20140413.2041)
 -->
<!-- Title: ./bazel&#45;bin/demo1_main; 79 samples Pages: 1 -->
<svg width="100%" height="100%"
  xmlns="http://www.w3.org/2000/svg" xmlns:xlink="http://www.w3.org/1999/xlink">
<script type="text/ecmascript"><![CDATA[
// SVGPan
// http://www.cyberz.org/blog/2009/12/08/svgpan-a-javascript-svg-panzoomdrag-library/
// Local modification: if(true || ...) below to force panning, never moving.

/**
 *  SVGPan library 1.2
 * ====================
 *
 * Given an unique existing element with id "viewport", including the
 * the library into any SVG adds the following capabilities:
 *
 *  - Mouse panning
 *  - Mouse zooming (using the wheel)
 *  - Object dargging
 *
 * Known issues:
 *
 *  - Zooming (while panning) on Safari has still some issues
 *
 * Releases:
 *
 * 1.2, Sat Mar 20 08:42:50 GMT 2010, Zeng Xiaohui
 *	Fixed a bug with browser mouse handler interaction
 *
 * 1.1, Wed Feb  3 17:39:33 GMT 2010, Zeng Xiaohui
 *	Updated the zoom code to support the mouse wheel on Safari/Chrome
 *
 * 1.0, Andrea Leofreddi
 *	First release
 *
 * This code is licensed under the following BSD license:
 *
 * Copyright 2009-2010 Andrea Leofreddi <a.leofreddi@itcharm.com>. All rights reserved.
 *
 * Redistribution and use in source and binary forms, with or without modification, are
 * permitted provided that the following conditions are met:
 *
 *    1. Redistributions of source code must retain the above copyright notice, this list of
 *       conditions and the following disclaimer.
 *
 *    2. Redistributions in binary form must reproduce the above copyright notice, this list
 *       of conditions and the following disclaimer in the documentation and/or other materials
 *       provided with the distribution.
 *
 * THIS SOFTWARE IS PROVIDED BY Andrea Leofreddi ``AS IS'' AND ANY EXPRESS OR IMPLIED
 * WARRANTIES, INCLUDING, BUT NOT LIMITED TO, THE IMPLIED WARRANTIES OF MERCHANTABILITY AND
 * FITNESS FOR A PARTICULAR PURPOSE ARE DISCLAIMED. IN NO EVENT SHALL Andrea Leofreddi OR
 * CONTRIBUTORS BE LIABLE FOR ANY DIRECT, INDIRECT, INCIDENTAL, SPECIAL, EXEMPLARY, OR
 * CONSEQUENTIAL DAMAGES (INCLUDING, BUT NOT LIMITED TO, PROCUREMENT OF SUBSTITUTE GOODS OR
 * SERVICES; LOSS OF USE, DATA, OR PROFITS; OR BUSINESS INTERRUPTION) HOWEVER CAUSED AND ON
 * ANY THEORY OF LIABILITY, WHETHER IN CONTRACT, STRICT LIABILITY, OR TORT (INCLUDING
 * NEGLIGENCE OR OTHERWISE) ARISING IN ANY WAY OUT OF THE USE OF THIS SOFTWARE, EVEN IF
 * ADVISED OF THE POSSIBILITY OF SUCH DAMAGE.
 *
 * The views and conclusions contained in the software and documentation are those of the
 * authors and should not be interpreted as representing official policies, either expressed
 * or implied, of Andrea Leofreddi.
 */

var root = document.documentElement;

var state = 'none', stateTarget, stateOrigin, stateTf;

setupHandlers(root);

/**
 * Register handlers
 */
function setupHandlers(root){
	setAttributes(root, {
		"onmouseup" : "add(evt)",
		"onmousedown" : "handleMouseDown(evt)",
		"onmousemove" : "handleMouseMove(evt)",
		"onmouseup" : "handleMouseUp(evt)",
		//"onmouseout" : "handleMouseUp(evt)", // Decomment this to stop the pan functionality when dragging out of the SVG element
	});

	if(navigator.userAgent.toLowerCase().indexOf('webkit') >= 0)
		window.addEventListener('mousewheel', handleMouseWheel, false); // Chrome/Safari
	else
		window.addEventListener('DOMMouseScroll', handleMouseWheel, false); // Others

	var g = svgDoc.getElementById("svg");
	g.width = "100%";
	g.height = "100%";
}

/**
 * Instance an SVGPoint object with given event coordinates.
 */
function getEventPoint(evt) {
	var p = root.createSVGPoint();

	p.x = evt.clientX;
	p.y = evt.clientY;

	return p;
}

/**
 * Sets the current transform matrix of an element.
 */
function setCTM(element, matrix) {
	var s = "matrix(" + matrix.a + "," + matrix.b + "," + matrix.c + "," + matrix.d + "," + matrix.e + "," + matrix.f + ")";

	element.setAttribute("transform", s);
}

/**
 * Dumps a matrix to a string (useful for debug).
 */
function dumpMatrix(matrix) {
	var s = "[ " + matrix.a + ", " + matrix.c + ", " + matrix.e + "\n  " + matrix.b + ", " + matrix.d + ", " + matrix.f + "\n  0, 0, 1 ]";

	return s;
}

/**
 * Sets attributes of an element.
 */
function setAttributes(element, attributes){
	for (i in attributes)
		element.setAttributeNS(null, i, attributes[i]);
}

/**
 * Handle mouse move event.
 */
function handleMouseWheel(evt) {
	if(evt.preventDefault)
		evt.preventDefault();

	evt.returnValue = false;

	var svgDoc = evt.target.ownerDocument;

	var delta;

	if(evt.wheelDelta)
		delta = evt.wheelDelta / 3600; // Chrome/Safari
	else
		delta = evt.detail / -90; // Mozilla

	var z = 1 + delta; // Zoom factor: 0.9/1.1

	var g = svgDoc.getElementById("viewport");

	var p = getEventPoint(evt);

	p = p.matrixTransform(g.getCTM().inverse());

	// Compute new scale matrix in current mouse position
	var k = root.createSVGMatrix().translate(p.x, p.y).scale(z).translate(-p.x, -p.y);

        setCTM(g, g.getCTM().multiply(k));

	stateTf = stateTf.multiply(k.inverse());
}

/**
 * Handle mouse move event.
 */
function handleMouseMove(evt) {
	if(evt.preventDefault)
		evt.preventDefault();

	evt.returnValue = false;

	var svgDoc = evt.target.ownerDocument;

	var g = svgDoc.getElementById("viewport");

	if(state == 'pan') {
		// Pan mode
		var p = getEventPoint(evt).matrixTransform(stateTf);

		setCTM(g, stateTf.inverse().translate(p.x - stateOrigin.x, p.y - stateOrigin.y));
	} else if(state == 'move') {
		// Move mode
		var p = getEventPoint(evt).matrixTransform(g.getCTM().inverse());

		setCTM(stateTarget, root.createSVGMatrix().translate(p.x - stateOrigin.x, p.y - stateOrigin.y).multiply(g.getCTM().inverse()).multiply(stateTarget.getCTM()));

		stateOrigin = p;
	}
}

/**
 * Handle click event.
 */
function handleMouseDown(evt) {
	if(evt.preventDefault)
		evt.preventDefault();

	evt.returnValue = false;

	var svgDoc = evt.target.ownerDocument;

	var g = svgDoc.getElementById("viewport");

	if(true || evt.target.tagName == "svg") {
		// Pan mode
		state = 'pan';

		stateTf = g.getCTM().inverse();

		stateOrigin = getEventPoint(evt).matrixTransform(stateTf);
	} else {
		// Move mode
		state = 'move';

		stateTarget = evt.target;

		stateTf = g.getCTM().inverse();

		stateOrigin = getEventPoint(evt).matrixTransform(stateTf);
	}
}

/**
 * Handle mouse button release event.
 */
function handleMouseUp(evt) {
	if(evt.preventDefault)
		evt.preventDefault();

	evt.returnValue = false;

	var svgDoc = evt.target.ownerDocument;

	if(state == 'pan' || state == 'move') {
		// Quit pan mode
		state = '';
	}
}

]]></script>
<g id="viewport" transform="translate(0,0)">
<g id="viewport" class="graph" transform="scale(1 1) rotate(0) translate(4 1266)">
<title>./bazel&#45;bin/demo1_main; 79 samples</title>
<polygon fill="white" stroke="none" points="-4,4 -4,-1266 936.5,-1266 936.5,4 -4,4"/>
<!-- Legend -->
<g id="node1" class="node"><title>Legend</title>
<text text-anchor="start" x="8" y="-1238.8" font-family="Times,serif" font-size="24.00">./bazel&#45;bin/demo1_main</text>
<text text-anchor="start" x="8" y="-1212.8" font-family="Times,serif" font-size="24.00">Total samples: 79</text>
<text text-anchor="start" x="8" y="-1186.8" font-family="Times,serif" font-size="24.00">Focusing on: 79</text>
<text text-anchor="start" x="8" y="-1160.8" font-family="Times,serif" font-size="24.00">Dropped nodes with &lt;= 0 abs(samples)</text>
<text text-anchor="start" x="8" y="-1134.8" font-family="Times,serif" font-size="24.00">Dropped edges with &lt;= 0 samples</text>
</g>
<!-- N1 -->
<g id="node2" class="node"><title>N1</title>
<polygon fill="none" stroke="black" points="479,-1073 405,-1073 405,-1038 479,-1038 479,-1073"/>
<text text-anchor="middle" x="442" y="-1062.6" font-family="Times,serif" font-size="8.00">__libc_start_main</text>
<text text-anchor="end" x="471" y="-1053.6" font-family="Times,serif" font-size="8.00">0 (0.0%)</text>
<text text-anchor="end" x="471" y="-1044.6" font-family="Times,serif" font-size="8.00">of 79 (100.0%)</text>
</g>
<!-- N3 -->
<g id="node4" class="node"><title>N3</title>
<polygon fill="none" stroke="black" points="474.5,-987 409.5,-987 409.5,-952 474.5,-952 474.5,-987"/>
<text text-anchor="middle" x="442" y="-976.6" font-family="Times,serif" font-size="8.00">main</text>
<text text-anchor="end" x="466.5" y="-967.6" font-family="Times,serif" font-size="8.00">0 (0.0%)</text>
<text text-anchor="end" x="466.5" y="-958.6" font-family="Times,serif" font-size="8.00">of 79 (100.0%)</text>
</g>
<!-- N1&#45;&gt;N3 -->
<g id="edge4" class="edge"><title>N1&#45;&gt;N3</title>
<path fill="none" stroke="black" stroke-width="2" d="M442,-1037.9C442,-1026.28 442,-1010.51 442,-997.141"/>
<polygon fill="black" stroke="black" stroke-width="2" points="445.5,-997.061 442,-987.061 438.5,-997.061 445.5,-997.061"/>
<text text-anchor="middle" x="449" y="-1008.8" font-family="Times,serif" font-size="14.00">79</text>
</g>
<!-- N2 -->
<g id="node3" class="node"><title>N2</title>
<polygon fill="none" stroke="black" points="474.5,-1210.5 409.5,-1210.5 409.5,-1175.5 474.5,-1175.5 474.5,-1210.5"/>
<text text-anchor="middle" x="442" y="-1200.1" font-family="Times,serif" font-size="8.00">_start</text>
<text text-anchor="end" x="466.5" y="-1191.1" font-family="Times,serif" font-size="8.00">0 (0.0%)</text>
<text text-anchor="end" x="466.5" y="-1182.1" font-family="Times,serif" font-size="8.00">of 79 (100.0%)</text>
</g>
<!-- N2&#45;&gt;N1 -->
<g id="edge2" class="edge"><title>N2&#45;&gt;N1</title>
<path fill="none" stroke="black" stroke-width="2" d="M442,-1175.39C442,-1152.43 442,-1110.74 442,-1083.33"/>
<polygon fill="black" stroke="black" stroke-width="2" points="445.5,-1083.25 442,-1073.25 438.5,-1083.25 445.5,-1083.25"/>
<text text-anchor="middle" x="449" y="-1094.8" font-family="Times,serif" font-size="14.00">79</text>
</g>
<!-- N6 -->
<g id="node7" class="node"><title>N6</title>
<polygon fill="none" stroke="black" points="474.5,-901 409.5,-901 409.5,-857 474.5,-857 474.5,-901"/>
<text text-anchor="middle" x="442" y="-890.6" font-family="Times,serif" font-size="8.00">mps</text>
<text text-anchor="middle" x="442" y="-881.6" font-family="Times,serif" font-size="8.00">Run</text>
<text text-anchor="end" x="466.5" y="-872.6" font-family="Times,serif" font-size="8.00">0 (0.0%)</text>
<text text-anchor="end" x="466.5" y="-863.6" font-family="Times,serif" font-size="8.00">of 79 (100.0%)</text>
</g>
<!-- N3&#45;&gt;N6 -->
<g id="edge5" class="edge"><title>N3&#45;&gt;N6</title>
<path fill="none" stroke="black" stroke-width="2" d="M442,-951.854C442,-940.442 442,-924.953 442,-911.277"/>
<polygon fill="black" stroke="black" stroke-width="2" points="445.5,-911.27 442,-901.27 438.5,-911.27 445.5,-911.27"/>
<text text-anchor="middle" x="449" y="-922.8" font-family="Times,serif" font-size="14.00">79</text>
</g>
<!-- N4 -->
<g id="node5" class="node"><title>N4</title>
<polygon fill="none" stroke="black" points="474.5,-806 409.5,-806 409.5,-753 474.5,-753 474.5,-806"/>
<text text-anchor="middle" x="442" y="-795.6" font-family="Times,serif" font-size="8.00">mps</text>
<text text-anchor="middle" x="442" y="-786.6" font-family="Times,serif" font-size="8.00">Demo1</text>
<text text-anchor="middle" x="442" y="-777.6" font-family="Times,serif" font-size="8.00">Run</text>
<text text-anchor="end" x="466.5" y="-768.6" font-family="Times,serif" font-size="8.00">0 (0.0%)</text>
<text text-anchor="end" x="466.5" y="-759.6" font-family="Times,serif" font-size="8.00">of 79 (100.0%)</text>
</g>
<!-- N5 -->
<g id="node6" class="node"><title>N5</title>
<polygon fill="none" stroke="black" points="474.5,-702 409.5,-702 409.5,-658 474.5,-658 474.5,-702"/>
<text text-anchor="middle" x="442" y="-691.6" font-family="Times,serif" font-size="8.00">mps</text>
<text text-anchor="middle" x="442" y="-682.6" font-family="Times,serif" font-size="8.00">Iterate</text>
<text text-anchor="end" x="466.5" y="-673.6" font-family="Times,serif" font-size="8.00">0 (0.0%)</text>
<text text-anchor="end" x="466.5" y="-664.6" font-family="Times,serif" font-size="8.00">of 79 (100.0%)</text>
</g>
<!-- N4&#45;&gt;N5 -->
<g id="edge1" class="edge"><title>N4&#45;&gt;N5</title>
<path fill="none" stroke="black" stroke-width="2" d="M442,-752.883C442,-740.418 442,-725.325 442,-712.194"/>
<polygon fill="black" stroke="black" stroke-width="2" points="445.5,-712.171 442,-702.171 438.5,-712.171 445.5,-712.171"/>
<text text-anchor="middle" x="449" y="-723.8" font-family="Times,serif" font-size="14.00">79</text>
</g>
<!-- N7 -->
<g id="node8" class="node"><title>N7</title>
<polygon fill="none" stroke="black" points="599,-607 285,-607 285,-309 599,-309 599,-607"/>
<text text-anchor="middle" x="442" y="-560.6" font-family="Times,serif" font-size="53.00">mps</text>
<text text-anchor="middle" x="442" y="-502.6" font-family="Times,serif" font-size="53.00">BinInTimeV3</text>
<text text-anchor="middle" x="442" y="-444.6" font-family="Times,serif" font-size="53.00">Run</text>
<text text-anchor="end" x="591" y="-386.6" font-family="Times,serif" font-size="53.00">64 (81.0%)</text>
<text text-anchor="end" x="591" y="-328.6" font-family="Times,serif" font-size="53.00">of 69 (87.3%)</text>
</g>
<!-- N5&#45;&gt;N7 -->
<g id="edge6" class="edge"><title>N5&#45;&gt;N7</title>
<path fill="none" stroke="black" stroke-width="2" d="M442,-657.905C442,-647.129 442,-632.952 442,-617.118"/>
<polygon fill="black" stroke="black" stroke-width="2" points="445.5,-617.061 442,-607.061 438.5,-617.061 445.5,-617.061"/>
<text text-anchor="middle" x="449" y="-628.8" font-family="Times,serif" font-size="14.00">69</text>
</g>
<!-- N9 -->
<g id="node10" class="node"><title>N9</title>
<polygon fill="none" stroke="black" points="676.5,-484.5 617.5,-484.5 617.5,-431.5 676.5,-431.5 676.5,-484.5"/>
<text text-anchor="middle" x="647" y="-474.1" font-family="Times,serif" font-size="8.00">mps</text>
<text text-anchor="middle" x="647" y="-465.1" font-family="Times,serif" font-size="8.00">BinInFreqV1</text>
<text text-anchor="middle" x="647" y="-456.1" font-family="Times,serif" font-size="8.00">Run</text>
<text text-anchor="end" x="668.5" y="-447.1" font-family="Times,serif" font-size="8.00">0 (0.0%)</text>
<text text-anchor="end" x="668.5" y="-438.1" font-family="Times,serif" font-size="8.00">of 6 (7.6%)</text>
</g>
<!-- N5&#45;&gt;N9 -->
<g id="edge7" class="edge"><title>N5&#45;&gt;N9</title>
<path fill="none" stroke="black" d="M474.5,-673.66C512.146,-665.752 573.411,-647.274 608,-607 635.025,-575.533 643.593,-527.41 646.164,-494.645"/>
<polygon fill="black" stroke="black" points="649.662,-494.789 646.804,-484.587 642.676,-494.345 649.662,-494.789"/>
<text text-anchor="middle" x="589.5" y="-628.8" font-family="Times,serif" font-size="14.00">6</text>
</g>
<!-- N13 -->
<g id="node14" class="node"><title>N13</title>
<polygon fill="none" stroke="black" points="749,-480 695,-480 695,-436 749,-436 749,-480"/>
<text text-anchor="middle" x="722" y="-469.6" font-family="Times,serif" font-size="8.00">mps</text>
<text text-anchor="middle" x="722" y="-460.6" font-family="Times,serif" font-size="8.00">MatPencil</text>
<text text-anchor="end" x="741" y="-451.6" font-family="Times,serif" font-size="8.00">0 (0.0%)</text>
<text text-anchor="end" x="741" y="-442.6" font-family="Times,serif" font-size="8.00">of 2 (2.5%)</text>
</g>
<!-- N5&#45;&gt;N13 -->
<g id="edge10" class="edge"><title>N5&#45;&gt;N13</title>
<path fill="none" stroke="black" d="M474.504,-679.56C527.329,-678.571 631.39,-668.371 686,-607 714.665,-574.786 721.419,-523.562 722.545,-490.616"/>
<polygon fill="black" stroke="black" points="726.051,-490.259 722.734,-480.197 719.053,-490.132 726.051,-490.259"/>
<text text-anchor="middle" x="669.5" y="-628.8" font-family="Times,serif" font-size="14.00">2</text>
</g>
<!-- N20 -->
<g id="node21" class="node"><title>N20</title>
<polygon fill="none" stroke="black" points="838,-484.5 776,-484.5 776,-431.5 838,-431.5 838,-484.5"/>
<text text-anchor="middle" x="807" y="-474.1" font-family="Times,serif" font-size="8.00">mps</text>
<text text-anchor="middle" x="807" y="-465.1" font-family="Times,serif" font-size="8.00">Window</text>
<text text-anchor="middle" x="807" y="-456.1" font-family="Times,serif" font-size="8.00">SampleInFreq</text>
<text text-anchor="end" x="830" y="-447.1" font-family="Times,serif" font-size="8.00">0 (0.0%)</text>
<text text-anchor="end" x="830" y="-438.1" font-family="Times,serif" font-size="8.00">of 1 (1.3%)</text>
</g>
<!-- N5&#45;&gt;N20 -->
<g id="edge15" class="edge"><title>N5&#45;&gt;N20</title>
<path fill="none" stroke="black" d="M474.685,-676.125C547.459,-669.031 719.475,-648.203 758,-607 786.94,-576.048 798.809,-527.603 803.663,-494.636"/>
<polygon fill="black" stroke="black" points="807.16,-494.891 805.006,-484.518 800.221,-493.971 807.16,-494.891"/>
<text text-anchor="middle" x="728.5" y="-628.8" font-family="Times,serif" font-size="14.00">1</text>
</g>
<!-- N22 -->
<g id="node23" class="node"><title>N22</title>
<polygon fill="none" stroke="black" points="918,-484.5 864,-484.5 864,-431.5 918,-431.5 918,-484.5"/>
<text text-anchor="middle" x="891" y="-474.1" font-family="Times,serif" font-size="8.00">mps</text>
<text text-anchor="middle" x="891" y="-465.1" font-family="Times,serif" font-size="8.00">Window</text>
<text text-anchor="middle" x="891" y="-456.1" font-family="Times,serif" font-size="8.00">Window</text>
<text text-anchor="end" x="910" y="-447.1" font-family="Times,serif" font-size="8.00">0 (0.0%)</text>
<text text-anchor="end" x="910" y="-438.1" font-family="Times,serif" font-size="8.00">of 1 (1.3%)</text>
</g>
<!-- N5&#45;&gt;N22 -->
<g id="edge16" class="edge"><title>N5&#45;&gt;N22</title>
<path fill="none" stroke="black" d="M474.774,-677.854C561.632,-674.119 794.671,-659.329 847,-607 876.76,-577.24 886.567,-528.314 889.701,-494.925"/>
<polygon fill="black" stroke="black" points="893.212,-494.917 890.5,-484.675 886.233,-494.372 893.212,-494.917"/>
<text text-anchor="middle" x="815.5" y="-628.8" font-family="Times,serif" font-size="14.00">1</text>
</g>
<!-- N6&#45;&gt;N4 -->
<g id="edge3" class="edge"><title>N6&#45;&gt;N4</title>
<path fill="none" stroke="black" stroke-width="2" d="M442,-856.844C442,-844.972 442,-829.845 442,-816.193"/>
<polygon fill="black" stroke="black" stroke-width="2" points="445.5,-816.119 442,-806.119 438.5,-816.119 445.5,-816.119"/>
<text text-anchor="middle" x="449" y="-827.8" font-family="Times,serif" font-size="14.00">79</text>
</g>
<!-- N8 -->
<g id="node9" class="node"><title>N8</title>
<polygon fill="none" stroke="black" points="659.5,-248 546.5,-248 546.5,-188 659.5,-188 659.5,-248"/>
<text text-anchor="middle" x="603" y="-224.88" font-family="Times,serif" font-size="23.90">sincos</text>
<text text-anchor="end" x="651.5" y="-198.88" font-family="Times,serif" font-size="23.90">8 (10.1%)</text>
</g>
<!-- N7&#45;&gt;N8 -->
<g id="edge11" class="edge"><title>N7&#45;&gt;N8</title>
<path fill="none" stroke="black" d="M542.133,-308.978C555.176,-289.696 567.487,-271.498 577.579,-256.579"/>
<polygon fill="black" stroke="black" points="580.549,-258.435 583.253,-248.191 574.751,-254.513 580.549,-258.435"/>
<text text-anchor="middle" x="567.5" y="-279.8" font-family="Times,serif" font-size="14.00">2</text>
</g>
<!-- N12 -->
<g id="node13" class="node"><title>N12</title>
<polygon fill="none" stroke="black" points="364,-235.5 310,-235.5 310,-200.5 364,-200.5 364,-235.5"/>
<text text-anchor="middle" x="337" y="-225.1" font-family="Times,serif" font-size="8.00">apply_dit</text>
<text text-anchor="end" x="356" y="-216.1" font-family="Times,serif" font-size="8.00">0 (0.0%)</text>
<text text-anchor="end" x="356" y="-207.1" font-family="Times,serif" font-size="8.00">of 2 (2.5%)</text>
</g>
<!-- N7&#45;&gt;N12 -->
<g id="edge13" class="edge"><title>N7&#45;&gt;N12</title>
<path fill="none" stroke="black" d="M376.696,-308.978C365.852,-284.397 355.783,-261.575 348.5,-245.067"/>
<polygon fill="black" stroke="black" points="351.582,-243.38 344.343,-235.644 345.177,-246.206 351.582,-243.38"/>
<text text-anchor="middle" x="371.5" y="-279.8" font-family="Times,serif" font-size="14.00">2</text>
</g>
<!-- N14 -->
<g id="node15" class="node"><title>N14</title>
<polygon fill="none" stroke="black" points="520,-237 382,-237 382,-199 520,-199 520,-237"/>
<text text-anchor="middle" x="451" y="-222.12" font-family="Times,serif" font-size="13.60">__nss_passwd_lookup</text>
<text text-anchor="end" x="512" y="-207.12" font-family="Times,serif" font-size="13.60">1 (1.3%)</text>
</g>
<!-- N7&#45;&gt;N14 -->
<g id="edge18" class="edge"><title>N7&#45;&gt;N14</title>
<path fill="none" stroke="black" d="M447.597,-308.978C448.48,-285.629 449.303,-263.867 449.919,-247.596"/>
<polygon fill="black" stroke="black" points="453.429,-247.381 450.31,-237.256 446.434,-247.116 453.429,-247.381"/>
<text text-anchor="middle" x="451.5" y="-279.8" font-family="Times,serif" font-size="14.00">1</text>
</g>
<!-- N9&#45;&gt;N8 -->
<g id="edge8" class="edge"><title>N9&#45;&gt;N8</title>
<path fill="none" stroke="black" d="M642.207,-431.077C634.493,-389.348 619.273,-307.023 610.233,-258.124"/>
<polygon fill="black" stroke="black" points="613.662,-257.421 608.403,-248.224 606.779,-258.693 613.662,-257.421"/>
<text text-anchor="middle" x="619.5" y="-279.8" font-family="Times,serif" font-size="14.00">6</text>
</g>
<!-- N10 -->
<g id="node11" class="node"><title>N10</title>
<polygon fill="none" stroke="black" points="766.5,-258 677.5,-258 677.5,-178 766.5,-178 766.5,-258"/>
<text text-anchor="middle" x="722" y="-241.2" font-family="Times,serif" font-size="16.00">Eigen</text>
<text text-anchor="middle" x="722" y="-223.2" font-family="Times,serif" font-size="16.00">JacobiSVD</text>
<text text-anchor="middle" x="722" y="-205.2" font-family="Times,serif" font-size="16.00">compute</text>
<text text-anchor="end" x="758.5" y="-187.2" font-family="Times,serif" font-size="16.00">2 (2.5%)</text>
</g>
<!-- N11 -->
<g id="node12" class="node"><title>N11</title>
<polygon fill="none" stroke="black" points="366.5,-125.5 307.5,-125.5 307.5,-90.5 366.5,-90.5 366.5,-125.5"/>
<text text-anchor="middle" x="337" y="-115.1" font-family="Times,serif" font-size="8.00">apply@20f00</text>
<text text-anchor="end" x="358.5" y="-106.1" font-family="Times,serif" font-size="8.00">0 (0.0%)</text>
<text text-anchor="end" x="358.5" y="-97.1" font-family="Times,serif" font-size="8.00">of 2 (2.5%)</text>
</g>
<!-- N11&#45;&gt;N12 -->
<g id="edge21" class="edge"><title>N11&#45;&gt;N12</title>
<path fill="none" stroke="black" d="M330.8,-125.612C328.855,-131.629 326.965,-138.536 326,-145 323.737,-160.148 326.078,-177.08 329.173,-190.717"/>
<polygon fill="black" stroke="black" points="325.781,-191.58 331.623,-200.418 332.568,-189.866 325.781,-191.58"/>
<text text-anchor="middle" x="329.5" y="-148.8" font-family="Times,serif" font-size="14.00">1</text>
</g>
<!-- N15 -->
<g id="node16" class="node"><title>N15</title>
<polygon fill="none" stroke="black" points="375.5,-38 284.5,-38 284.5,-0 375.5,-0 375.5,-38"/>
<text text-anchor="middle" x="330" y="-23.12" font-family="Times,serif" font-size="13.60">apply@1b6f0</text>
<text text-anchor="end" x="367.5" y="-8.12" font-family="Times,serif" font-size="13.60">1 (1.3%)</text>
</g>
<!-- N11&#45;&gt;N15 -->
<g id="edge23" class="edge"><title>N11&#45;&gt;N15</title>
<path fill="none" stroke="black" d="M335.65,-90.2255C334.694,-78.3426 333.389,-62.1154 332.273,-48.2532"/>
<polygon fill="black" stroke="black" points="335.757,-47.9119 331.466,-38.2248 328.78,-48.4733 335.757,-47.9119"/>
<text text-anchor="middle" x="336.5" y="-59.8" font-family="Times,serif" font-size="14.00">1</text>
</g>
<!-- N17 -->
<g id="node18" class="node"><title>N17</title>
<polygon fill="none" stroke="black" points="452.5,-36.5 393.5,-36.5 393.5,-1.5 452.5,-1.5 452.5,-36.5"/>
<text text-anchor="middle" x="423" y="-26.1" font-family="Times,serif" font-size="8.00">apply@201f0</text>
<text text-anchor="end" x="444.5" y="-17.1" font-family="Times,serif" font-size="8.00">0 (0.0%)</text>
<text text-anchor="end" x="444.5" y="-8.1" font-family="Times,serif" font-size="8.00">of 1 (1.3%)</text>
</g>
<!-- N11&#45;&gt;N17 -->
<g id="edge20" class="edge"><title>N11&#45;&gt;N17</title>
<path fill="none" stroke="black" d="M353.582,-90.2255C366.55,-77.1066 384.752,-58.6928 399.264,-44.012"/>
<polygon fill="black" stroke="black" points="401.928,-46.2954 406.469,-36.723 396.95,-41.3743 401.928,-46.2954"/>
<text text-anchor="middle" x="388.5" y="-59.8" font-family="Times,serif" font-size="14.00">1</text>
</g>
<!-- N12&#45;&gt;N11 -->
<g id="edge9" class="edge"><title>N12&#45;&gt;N11</title>
<path fill="none" stroke="black" d="M337,-200.125C337,-182.926 337,-155.99 337,-135.857"/>
<polygon fill="black" stroke="black" points="340.5,-135.756 337,-125.757 333.5,-135.757 340.5,-135.756"/>
<text text-anchor="middle" x="340.5" y="-148.8" font-family="Times,serif" font-size="14.00">3</text>
</g>
<!-- N16 -->
<g id="node17" class="node"><title>N16</title>
<polygon fill="none" stroke="black" points="273,-125.5 213,-125.5 213,-90.5 273,-90.5 273,-125.5"/>
<text text-anchor="middle" x="243" y="-115.1" font-family="Times,serif" font-size="8.00">apply@1e4d0</text>
<text text-anchor="end" x="265" y="-106.1" font-family="Times,serif" font-size="8.00">0 (0.0%)</text>
<text text-anchor="end" x="265" y="-97.1" font-family="Times,serif" font-size="8.00">of 1 (1.3%)</text>
</g>
<!-- N12&#45;&gt;N16 -->
<g id="edge19" class="edge"><title>N12&#45;&gt;N16</title>
<path fill="none" stroke="black" d="M322.312,-200.125C306.723,-182.213 281.939,-153.739 264.226,-133.388"/>
<polygon fill="black" stroke="black" points="266.79,-131.002 257.584,-125.757 261.51,-135.597 266.79,-131.002"/>
<text text-anchor="middle" x="290.5" y="-148.8" font-family="Times,serif" font-size="14.00">1</text>
</g>
<!-- N13&#45;&gt;N10 -->
<g id="edge12" class="edge"><title>N13&#45;&gt;N10</title>
<path fill="none" stroke="black" d="M722,-435.879C722,-398.521 722,-319.871 722,-268.262"/>
<polygon fill="black" stroke="black" points="725.5,-268.003 722,-258.003 718.5,-268.003 725.5,-268.003"/>
<text text-anchor="middle" x="725.5" y="-279.8" font-family="Times,serif" font-size="14.00">2</text>
</g>
<!-- N23 -->
<g id="node24" class="node"><title>N23</title>
<polygon fill="none" stroke="black" points="266.5,-38 201.5,-38 201.5,-0 266.5,-0 266.5,-38"/>
<text text-anchor="middle" x="234" y="-23.12" font-family="Times,serif" font-size="13.60">n1_12</text>
<text text-anchor="end" x="258.5" y="-8.12" font-family="Times,serif" font-size="13.60">1 (1.3%)</text>
</g>
<!-- N16&#45;&gt;N23 -->
<g id="edge17" class="edge"><title>N16&#45;&gt;N23</title>
<path fill="none" stroke="black" d="M241.265,-90.2255C240.035,-78.3426 238.357,-62.1154 236.923,-48.2532"/>
<polygon fill="black" stroke="black" points="240.396,-47.8115 235.885,-38.2248 233.433,-48.5319 240.396,-47.8115"/>
<text text-anchor="middle" x="242.5" y="-59.8" font-family="Times,serif" font-size="14.00">1</text>
</g>
<!-- N17&#45;&gt;N12 -->
<g id="edge25" class="edge"><title>N17&#45;&gt;N12</title>
<path fill="none" stroke="black" d="M415.686,-36.7536C400.692,-71.1009 366.371,-149.719 348.419,-190.842"/>
<polygon fill="black" stroke="black" points="345.126,-189.639 344.332,-200.204 351.541,-192.439 345.126,-189.639"/>
<text text-anchor="middle" x="395.5" y="-104.3" font-family="Times,serif" font-size="14.00">1</text>
</g>
<!-- N18 -->
<g id="node19" class="node"><title>N18</title>
<polygon fill="none" stroke="black" points="849.5,-237 784.5,-237 784.5,-199 849.5,-199 849.5,-237"/>
<text text-anchor="middle" x="817" y="-222.12" font-family="Times,serif" font-size="13.60">erf</text>
<text text-anchor="end" x="841.5" y="-207.12" font-family="Times,serif" font-size="13.60">1 (1.3%)</text>
</g>
<!-- N19 -->
<g id="node20" class="node"><title>N19</title>
<polygon fill="none" stroke="black" points="932.5,-127 867.5,-127 867.5,-89 932.5,-89 932.5,-127"/>
<text text-anchor="middle" x="900" y="-112.12" font-family="Times,serif" font-size="13.60">gammal</text>
<text text-anchor="end" x="924.5" y="-97.12" font-family="Times,serif" font-size="13.60">1 (1.3%)</text>
</g>
<!-- N20&#45;&gt;N18 -->
<g id="edge14" class="edge"><title>N20&#45;&gt;N18</title>
<path fill="none" stroke="black" d="M808.089,-431.077C809.982,-386.033 813.862,-293.687 815.818,-247.141"/>
<polygon fill="black" stroke="black" points="819.315,-247.28 816.238,-237.141 812.321,-246.986 819.315,-247.28"/>
<text text-anchor="middle" x="817.5" y="-279.8" font-family="Times,serif" font-size="14.00">1</text>
</g>
<!-- N21 -->
<g id="node22" class="node"><title>N21</title>
<polygon fill="none" stroke="black" points="932.5,-244.5 867.5,-244.5 867.5,-191.5 932.5,-191.5 932.5,-244.5"/>
<text text-anchor="middle" x="900" y="-234.1" font-family="Times,serif" font-size="8.00">mps</text>
<text text-anchor="middle" x="900" y="-225.1" font-family="Times,serif" font-size="8.00">Window</text>
<text text-anchor="middle" x="900" y="-216.1" font-family="Times,serif" font-size="8.00">SampleInTime</text>
<text text-anchor="end" x="924.5" y="-207.1" font-family="Times,serif" font-size="8.00">0 (0.0%)</text>
<text text-anchor="end" x="924.5" y="-198.1" font-family="Times,serif" font-size="8.00">of 1 (1.3%)</text>
</g>
<!-- N21&#45;&gt;N19 -->
<g id="edge22" class="edge"><title>N21&#45;&gt;N19</title>
<path fill="none" stroke="black" d="M900,-191.406C900,-175.236 900,-154.317 900,-137.602"/>
<polygon fill="black" stroke="black" points="903.5,-137.317 900,-127.317 896.5,-137.317 903.5,-137.317"/>
<text text-anchor="middle" x="903.5" y="-148.8" font-family="Times,serif" font-size="14.00">1</text>
</g>
<!-- N22&#45;&gt;N21 -->
<g id="edge24" class="edge"><title>N22&#45;&gt;N21</title>
<path fill="none" stroke="black" d="M891.98,-431.077C893.597,-388.313 896.827,-302.913 898.656,-254.548"/>
<polygon fill="black" stroke="black" points="902.154,-254.656 899.035,-244.531 895.159,-254.392 902.154,-254.656"/>
<text text-anchor="middle" x="900.5" y="-279.8" font-family="Times,serif" font-size="14.00">1</text>
</g>
</g>
</g></svg>
